<?xml version="1.0" encoding="UTF-8"?>
<!DOCTYPE svg PUBLIC "-//W3C//DTD SVG 1.1//EN" "http://www.w3.org/Graphics/SVG/1.1/DTD/svg11.dtd">
<!-- Creator: CorelDRAW -->
<svg xmlns="http://www.w3.org/2000/svg" xml:space="preserve" width="3046px" height="359px" style="shape-rendering:geometricPrecision; text-rendering:geometricPrecision; image-rendering:optimizeQuality; fill-rule:evenodd; clip-rule:evenodd"
viewBox="0 0 3046 359.199"
 xmlns:xlink="http://www.w3.org/1999/xlink">
 <defs>
  <style type="text/css">
   <![CDATA[
    .fil7 {fill:none}
    .fil0 {fill:#0E9146}
    .fil3 {fill:#FEFEFE}
    .fil2 {fill:black}
    .fil4 {fill:#006CB1}
    .fil1 {fill:#1F1A17}
    .fil8 {fill:#DA251D}
    .fil11 {fill:#E6E6E6}
    .fil9 {fill:#EF9A48}
    .fil6 {fill:#FEF400}
    .fil5 {fill:black}
    .fil10 {fill:black;fill-rule:nonzero}
    .fil12 {fill:#E6E6E6;fill-rule:nonzero}
   ]]>
  </style>
 </defs>
 <g id="Layer_x0020_1">
  <metadata id="CorelCorpID_0Corel-Layer"/>
  <g id="_518519896">
   <g>
    <path id="_402935104" class="fil0" d="M241.313 167.431c-13.2799,0.435852 -27.5697,3.3687 -37.853,12.3763 -4.95029,4.33608 -7.78037,9.11273 -9.75056,15.3647 -2.11784,6.72322 -3.07222,14.5875 -3.62856,21.6072 -0.303561,3.82935 -0.509084,7.4839 -1.20716,11.279 -0.759493,4.12583 -6.43029,3.92503 -6.02279,7.45791 0.253952,2.20288 0.0921313,4.6231 5.07667,10.4132 1.65718,2.81237 4.19197,4.19079 7.25711,5.25385 5.21487,1.80719 17.2841,1.95956 22.5722,0.511447 5.64127,-1.54615 11.9168,-5.23731 16.873,-8.36977 6.11728,-3.86597 13.4169,-11.7432 18.822,-18.7889 5.40504,-7.04686 11.1077,-14.3004 21.3071,-18.0837 3.70297,-1.3737 6.02161,-1.35835 9.91711,-1.55678 1.83554,-0.0944936 5.02234,0.294111 7.01615,0.683898 1.99382,0.389786 2.53007,0.539795 4.43057,1.11621 1.9005,0.576411 2.70842,0.79729 2.99072,0.858711 0.283481,0.0614209 -0.200799,-1.50009 -0.812645,-3.39823 -0.613027,-1.89932 -1.51662,-3.86361 -2.13201,-5.48417 -0.967379,-3.15136 -1.93003,-4.20379 -3.46437,-7.05749 -1.61702,-3.0108 -3.18562,-4.75539 -5.52788,-7.32208 -2.04342,-2.2395 -4.07504,-4.28292 -6.50471,-6.11374 -4.33726,-3.2683 -10.6128,-6.42439 -16.8482,-8.26583 -6.2354,-1.84263 -14.9749,-2.7285 -22.5107,-2.48164z"/>
    <path id="_402934672" class="fil1" d="M176.28 248.008c-0.172451,-3.45492 4.89005,-3.46437 5.03651,-0.37325 0.155914,3.29901 -4.8865,3.38996 -5.03651,0.37325zm1.83908 3.44666l-0.175994 10.5538c-2.58086,-3.40059 -9.36668,-13.1889 -7.83352,-18.1818l2.96828 -6.14681c2.12138,-0.0330728 10.3093,-0.369706 11.6747,0.251589 2.18162,0.992183 3.48445,5.5078 3.03088,8.6379l-8.32961 15.4107 -0.00472468 -10.8077c1.22487,-0.829182 2.72732,-1.37961 2.647,-3.54705 -0.144103,-3.9333 -6.41966,-4.05378 -6.56022,0.0307104 -0.0921313,2.69307 1.71033,2.24068 2.58322,3.79864zm-8.47017 -2.61275l-37.7301 -1.0099c13.5787,-1.68199 15.595,-16.4809 21.9721,-18.2892 1.20243,-0.341358 6.88859,0.366163 8.93437,0.427584 2.68008,0.0826819 2.73559,1.02526 5.79837,4.17071 1.89224,1.94421 3.9392,2.60094 2.0009,5.99798 -1.64065,2.87379 -1.44339,5.29873 -0.975647,8.70286zm22.1139 -20.3858c2.25485,0.055515 4.37033,0.226785 6.64526,0.15119 1.86152,-0.0614209 4.61129,-0.604759 6.11846,-0.563418 3.25412,0.0885878 5.40149,3.86715 7.0256,6.43384l14.9808 11.9464c-1.1292,0.943755 -2.53834,1.5308 -3.88133,2.08949 -7.49925,3.12183 -17.9455,5.12628 -25.6042,2.00917l-8.24575 -4.04787c-0.311829,-2.25013 -0.0437033,-3.44784 -0.929581,-5.53496 -2.03988,-4.81091 -4.23213,-3.93094 0.611846,-8.98398 1.18117,-1.23196 2.26667,-2.2395 3.27893,-3.49981zm-18.6093 -31.4912l1.51426 -0.0295293 9.57457 0.00236234 -0.00354351 39.9673 -11.0853 -0.0224422 0 -39.9177zm-64.3714 33.0196c16.032,-0.096856 20.7047,-6.11256 27.8957,-6.99725 1.82609,-0.224422 2.83245,0.987458 4.74949,1.96074l10.0919 3.9144c-6.20823,5.56213 -9.52614,17.1577 -20.5406,17.5156 -5.53615,0.179538 -20.6516,-13.6909 -22.1966,-16.3935zm98.9549 -2.51707c3.3498,-1.50599 6.33344,-2.03043 9.62536,-3.78683 4.68925,-2.50172 4.01244,-2.87733 9.70804,-0.517353l21.8209 5.43102c-1.17526,2.35407 -16.0545,16.475 -20.9906,16.423 -10.7983,-0.112211 -13.8752,-11.8424 -20.1638,-17.5498zm-120.366 -17.0384c1.23078,-0.656731 5.53851,-1.73514 7.40476,-2.49936 10.7274,-4.39277 15.4521,-10.4156 23.0978,-1.91113 3.17617,3.53288 3.75022,3.74785 7.25002,6.92284 4.91367,4.45656 7.06222,5.68025 10.327,8.55167l-13.2232 5.09084c-2.86552,0.911864 -13.2681,3.27775 -15.7438,1.16345l-4.54514 -4.64672c-3.81754,-4.08567 -9.71631,-9.95372 -14.5674,-12.6716zm135.875 9.56984c4.38214,-2.82654 6.73976,-5.26566 10.1333,-8.61546 11.6582,-11.5058 11.0404,-13.9024 22.8556,-7.80517 7.32916,3.78211 10.3648,4.11756 12.9574,5.37196 -8.63908,6.85433 -6.87559,5.92475 -13.9496,12.7956 -3.47618,3.37697 -3.31555,8.68987 -19.422,3.39587 -1.66663,-0.548063 -11.7349,-4.56168 -12.5747,-5.14282zm-162.696 -12.6409c1.03352,-1.2485 3.5069,-3.23641 5.07549,-4.45419 9.5226,-7.39295 21.339,-15.0765 34.1606,-10.2077 3.92267,1.48946 9.46826,5.10384 11.3877,7.43783l-24.0616 8.59892c-2.647,0.479555 -3.82699,-0.647281 -6.11846,-1.45166 -8.55049,-2.99781 -12.8901,-1.4552 -20.4437,0.0767761zm186.262 -9.31353c3.21042,-1.70443 5.2633,-4.73059 11.4196,-7.0008 9.65252,-3.56005 19.4574,1.11148 26.9768,6.53542 1.48119,1.06778 8.85523,6.75748 9.82025,8.33316l-14.2095 -1.38551c-4.22268,0.656731 -8.12173,3.59312 -12.0692,2.65055 -7.71895,-1.84381 -13.8847,-6.77637 -18.8905,-7.93038 -0.275213,-0.062602 -1.47292,-0.277575 -1.54261,-0.300017 -0.83745,-0.278756 -0.146465,-0.00944936 -0.909501,-0.43349l-0.59531 -0.468925zm-189.003 9.34188c0.995727,-10.5419 7.79927,-18.5231 14.2638,-24.8377 4.18843,-4.09157 7.90085,-6.1539 13.5799,-3.27539 3.01907,1.52962 7.37523,7.65517 9.06666,10.5242l-21.3922 5.86687c-4.08449,1.71624 -14.4587,11.1361 -15.5182,11.7219zm204.726 -18.985c1.57096,-2.99663 5.68615,-9.08556 8.8576,-10.6175 2.10721,-1.01817 6.11492,-1.66427 8.02605,-0.447664 7.64926,4.86878 17.5912,17.6254 18.3885,28.7969l-6.96064 -6.14799c-8.07212,-6.40549 -16.6238,-12.2109 -28.3115,-11.5837zm-152.168 -12.4472c3.2931,-0.41341 6.3358,-0.840993 9.50842,-1.46465 4.71996,-0.929581 6.61692,-1.85208 9.00052,-0.153552 4.86288,3.46555 8.26229,5.44047 10.9483,10.8774 3.16672,6.40903 2.59739,11.768 1.68789,19.3334 -1.09967,9.1647 -1.03589,10.7061 0.973284,19.083l-12.2641 -8.13118c-1.65364,-1.28866 -9.77064,-8.54222 -10.0837,-9.70213 -0.662637,-2.45211 2.09067,-13.6165 -7.62564,-26.9779 -0.694528,-0.955567 -1.63474,-1.83436 -2.14501,-2.86434zm-28.5394 -0.0543338c0.824457,-0.673267 4.67153,-2.44502 5.63655,-2.84426 2.05051,-0.846899 5.02588,-2.14973 7.27129,-2.4403l9.49425 5.02588c2.66472,0.39333 3.82817,-0.0118117 5.37078,1.87334 0.843356,1.03116 2.24895,2.92458 3.05687,4.22741 3.68761,5.93893 6.79055,14.0642 5.92948,22.8332 -6.04641,-5.31172 -11.3357,-10.8313 -19.0298,-13.5693 -3.76675,-1.34063 -2.68244,-1.11148 -4.71996,-3.70061 -4.04905,-5.14872 -5.54441,-9.84151 -13.7335,-10.6955l0.724057 -0.709883zm157.537 24.625c-0.323641,-7.35869 2.94466,-15.8182 6.14799,-20.6634 7.62209,-11.5282 4.02307,-0.268126 16.0698,-10.8928l14.2177 5.95074c-5.55032,1.93121 -6.9382,1.66309 -10.236,6.22831 -3.32263,4.60066 -3.77738,7.02915 -7.64808,8.42765 -4.04078,1.46111 -7.53232,3.76085 -10.0931,5.9968l-8.34615 7.57721 -0.112211 -2.62456zm-22.8781 21.7536c4.7235,-13.274 -2.94348,-25.3952 2.27612,-37.7833 2.4214,-5.74521 6.12201,-7.93628 10.523,-11.2908 1.71388,-1.30637 1.64655,-1.14692 4.02661,-0.733507 5.34125,0.926038 8.19378,1.7942 14.1351,2.05642 -1.36307,1.8568 -2.59739,3.39941 -3.75494,5.4322 -1.05242,1.84853 -2.07532,3.70415 -2.93875,5.85388 -1.75876,4.37506 -2.90686,9.54031 -2.90686,14.7115l-3.29901 7.8099c-1.93121,1.90523 -3.33326,3.11238 -5.4948,5.21723 -2.67535,2.60448 -8.94855,7.16616 -12.5665,8.72649zm-53.631 6.18461c-4.71759,0.00472468 -16.3391,-1.23905 -18.2857,-4.3597 -3.34389,-5.36133 -2.24422,-13.4299 -1.46938,-19.976 0.894146,-7.54532 1.31701,-13.0862 -1.89814,-19.5247 -3.80809,-7.62327 -9.57102,-9.41157 -10.9128,-11.3711l17.649 5.01053c3.85534,2.53952 7.61382,7.03387 9.92065,12.2794 3.90613,8.88122 4.75539,19.1149 3.99708,29.0721 -0.751224,9.85687 -1.27921,5.13337 0.99927,8.86941zm30.7813 -1.42567c0.0472468,-0.102762 0.133472,-0.220879 0.180719,-0.287024 0.956748,-1.31464 0.944936,-0.853986 1.25086,-1.59222 0.328365,-0.792565 -0.429946,-5.65899 -0.546882,-7.38232 -1.52371,-22.5403 5.16526,-47.0862 33.9161,-45.9865l-1.78002 1.48001c-11.5318,8.62845 -12.3503,15.9482 -10.5679,31.0754 0.601216,5.10738 1.44811,16.7561 -2.53952,19.3795 -4.18016,2.74858 -14.2957,3.49981 -19.9134,3.31318zm82.6406 -53.4669c-3.9333,-2.27493 -8.88831,-4.65263 -13.8669,-6.03814l-6.88977 -21.6686c0.155914,4.7672 2.55842,9.2403 0.402779,14.5378 -1.7942,4.41049 -6.83189,4.50498 -12.3338,4.11165 -11.781,-0.843356 -23.0151,-8.74893 -40.35,2.16863 -6.08657,3.8329 -12.883,10.5301 -16.1407,16.7974 -2.32454,4.47191 -2.6281,6.8874 -4.22032,11.8566l-9.55449 0.0708702c-3.51871,-8.79736 -4.74831,-14.2213 -11.8578,-20.7343 -4.99517,-4.57467 -11.6204,-9.78954 -20.9481,-11.5885 -11.9393,-2.30328 -18.0814,2.02807 -28.6658,2.91513 -17.3951,1.45756 -12.172,-10.4864 -11.4857,-18.6519 -6.13146,9.06194 -9.80253,11.8601 -6.88504,21.9379l-13.7854 5.95546c-11.3759,5.81254 -23.523,20.7543 -23.8738,35.5497 6.26729,-2.09658 10.7463,-4.11992 17.6195,-3.60375 6.54959,0.492548 11.4444,3.26948 15.4296,6.00389 3.42067,2.34817 8.5127,7.13545 11.3192,10.1191l10.3364 10.7262c3.475,3.45965 6.9878,6.87205 11.5802,9.86514 4.4412,2.89387 8.00952,5.19597 13.5917,7.465 8.30127,3.3746 18.1912,4.92194 27.1905,2.10012 2.87024,-0.900052 4.93611,-2.18517 7.18152,-3.00372 1.21188,2.46038 6.45273,12.6444 8.80681,13.1122 8.2989,-9.45527 7.0445,-11.4904 9.57221,-15.5182 5.89404,2.96946 8.66389,4.91249 15.6824,5.41921 11.4278,0.825638 23.0706,-4.45892 31.5939,-10.6506 6.41966,-4.66444 11.3652,-9.65607 16.4939,-15.2737 0.933125,-1.02289 1.50363,-1.94421 2.44266,-2.93875 0.963835,-1.02053 1.59104,-1.48237 2.46392,-2.49936 11.0345,-12.8464 24.6782,-21.6898 42.5658,-12.5759 -2.43085,-9.45291 -2.77103,-14.9465 -7.70832,-21.8032 -1.66191,-2.30919 -2.73795,-3.45965 -4.57231,-5.37787 -3.22223,-3.36988 -6.42793,-6.06413 -11.1349,-8.78555z"/>
    <polygon id="_402937600" class="fil2" points="178.786,0 191.55,4.15418 203.538,8.7005 217.157,14.2485 228.799,19.5023 241.168,25.4767 252.254,31.2774 265.883,39.3164 277.431,46.909 290.228,56.1954 299.156,63.397 310.694,73.4168 321.156,83.6552 339.748,105.115 356.972,129.615 356.966,143.039 356.348,155.846 355.281,170.514 353.881,183.211 352.023,196.822 349.932,209.16 346.499,224.607 342.847,237.936 337.971,252.978 333.881,263.696 327.918,277.766 321.415,290.881 306.752,315.197 288.777,339.149 276.009,343.293 263.638,346.663 249.36,350.179 236.854,352.772 223.336,355.211 210.957,357.035 195.207,358.543 181.402,359.188 165.591,359.199 154.134,358.62 138.912,357.296 124.432,355.164 96.7768,348.732 68.4441,339.036 60.5574,328.173 53.5306,317.447 45.7739,304.953 39.444,293.859 32.9476,281.754 27.3878,270.544 21.0863,256.029 16.2068,243.098 11.3121,228.063 8.32135,216.988 4.87587,202.099 2.42849,187.667 -0,159.375 0.465381,129.43 8.35914,118.573 16.3864,108.574 25.8712,97.3355 34.4654,87.8862 43.9691,77.9667 52.9117,69.2142 64.7671,58.7361 75.5559,50.0993 88.3409,40.7964 97.9486,34.5292 111.043,26.6519 124.011,19.8649 150.165,8.81153 "/>
    <polygon id="_402933832" class="fil3" points="178.737,6.0724 189.627,9.61591 201.42,14.0878 214.874,19.5685 226.349,24.7479 238.568,30.6478 249.441,36.3387 262.821,44.2301 274.14,51.6727 286.709,60.7937 295.441,67.8358 306.769,77.675 316.938,87.6251 335.183,108.684 351.183,131.444 351.18,142.898 350.57,155.496 349.515,169.987 348.137,182.503 346.301,195.947 344.25,208.048 340.88,223.213 337.3,236.278 332.511,251.052 328.512,261.534 322.656,275.349 316.335,288.096 301.947,311.957 285.248,334.21 274.354,337.745 262.186,341.059 248.08,344.533 235.752,347.089 222.4,349.498 210.259,351.287 194.795,352.767 181.265,353.4 165.735,353.41 154.531,352.845 139.585,351.545 125.51,349.472 98.3726,343.161 72.0514,334.153 65.3235,324.884 58.4101,314.334 50.7478,301.991 44.5077,291.055 38.0904,279.099 32.6381,268.103 26.4523,253.854 21.6686,241.18 16.8612,226.411 13.9354,215.58 10.5538,200.962 8.17488,186.934 5.79128,159.172 6.22359,131.352 12.9586,122.089 20.8559,112.254 30.225,101.151 38.6963,91.8372 48.0831,82.0394 56.8545,73.4546 68.4937,63.1666 79.0687,54.7012 91.6269,45.5637 101.023,39.4357 113.879,31.7014 126.484,25.1046 152.148,14.2579 "/>
    <polygon id="_402933400" class="fil4" points="178.689,12.1424 187.705,15.0765 199.302,19.474 212.592,24.8873 223.9,29.9923 235.967,35.819 246.627,41.3977 259.759,49.1438 270.849,56.4351 283.19,65.392 291.725,72.2758 302.844,81.9319 312.72,91.595 330.617,112.253 345.396,133.274 345.391,142.757 344.793,155.146 343.751,169.459 342.392,181.795 340.58,195.071 338.568,206.935 335.261,221.82 331.753,234.621 327.051,249.128 323.141,259.372 317.393,272.932 311.256,285.311 297.142,308.717 281.719,329.27 272.7,332.196 260.733,335.456 246.801,338.887 234.651,341.407 221.464,343.786 209.56,345.54 194.385,346.992 181.128,347.613 165.879,347.622 154.928,347.069 140.258,345.794 126.588,343.78 99.9695,337.589 75.6587,329.27 70.0883,321.596 63.2895,311.221 55.7217,299.03 49.5714,288.252 43.2344,276.443 37.8884,265.664 31.8172,251.678 27.1303,239.261 22.4092,224.76 19.5507,214.173 16.2305,199.825 13.9213,186.202 11.5837,158.969 11.983,133.274 17.5581,125.604 25.3243,115.933 34.5788,104.966 42.9273,95.787 52.1971,86.1097 60.7972,77.695 72.2215,67.5972 82.5815,59.303 94.9118,50.3309 104.097,44.3411 116.715,36.7498 128.957,30.3431 154.131,19.7031 "/>
    <g>
     <g>
      <g>
       <g>
        <path id="_402932944" class="fil2" d="M186.17 243.74c-1.72451,-2.01271 -3.5317,-4.39632 -4.4849,-6.88386 -0.581136,-1.5178 -0.669724,-2.64937 -0.850443,-4.21324 -0.0980371,-0.852805 0.0389786,-1.67372 0.458294,-2.42612 0.90832,-1.62411 2.71787,-2.29383 4.12937,-3.36161 0.729963,-0.55515 1.27685,-1.16463 1.4493,-2.09894 0.677992,-3.68171 0.891784,-7.40594 1.18826,-11.1302 0.57523,-7.25239 1.50009,-14.9749 3.69116,-21.9272 2.04579,-6.49171 5.02942,-11.5105 10.177,-16.0202 10.5455,-9.23793 25.1081,-12.2854 38.7589,-12.733 2.7226,-0.089769 5.45937,-0.0342539 8.17724,0.140559 4.87942,0.314191 10.0943,1.01108 14.7906,2.39896 5.94719,1.7564 12.3669,4.77429 17.3089,8.49852 2.4781,1.86507 4.61838,4.01007 6.70314,6.29446 2.29501,2.51353 4.10575,4.58294 5.73458,7.61264 0.617752,1.15164 1.29102,2.27375 1.90405,3.42539 0.66618,1.25322 1.19298,2.50526 1.65364,3.84707 0.637832,1.86034 1.5308,3.62265 2.1391,5.51016 0.256314,0.794928 0.520896,1.5993 0.738232,2.40723 0.256314,0.953205 0.506722,2.19698 -0.647281,2.7415 -0.380337,0.178357 -0.680354,0.168907 -0.961473,0.107487 -1.01463,-0.220879 -2.11075,-0.587042 -3.10293,-0.88824 -0.694528,-0.210248 -1.38906,-0.42404 -2.09185,-0.603578 -0.725239,-0.186625 -1.46111,-0.33309 -2.19698,-0.477193 -1.03352,-0.20198 -2.09067,-0.354351 -3.13719,-0.471287 -1.1292,-0.127566 -2.39187,-0.245683 -3.52697,-0.187806 -1.65364,0.0838631 -3.34035,0.124023 -4.98336,0.335452 -1.57096,0.203161 -3.01907,0.581136 -4.5038,1.13274 -9.40802,3.49036 -14.767,9.92065 -20.6634,17.6077 -1.89932,2.4781 -3.89786,4.88886 -5.98027,7.21577 -2.0954,2.33872 -4.29237,4.61011 -6.60983,6.73149 -2.04815,1.87216 -4.25812,3.69943 -6.60747,5.18416 -5.17471,3.27184 -11.3451,6.9193 -17.2628,8.54222 -1.68671,0.461838 -3.54233,0.687441 -5.28338,0.831544 -2.13319,0.175994 -4.28883,0.225604 -6.42911,0.185444 -2.14501,-0.041341 -4.30655,-0.173632 -6.43502,-0.441758 -1.74341,-0.219698 -3.61793,-0.538614 -5.28101,-1.11502 -3.32027,-1.15164 -6.10429,-2.69779 -7.96227,-5.7712z"/>
       </g>
       <path id="_402932224" class="fil0" d="M240.734 164.392c-13.2799,0.437033 -27.5697,3.3687 -37.853,12.3763 -4.95029,4.33608 -7.78037,9.11273 -9.75056,15.3658 -2.11784,6.72204 -3.07222,14.5863 -3.62856,21.606 -0.303561,3.82935 -0.509084,7.4839 -1.20716,11.279 -0.759493,4.12583 -6.43029,3.92503 -6.02279,7.45791 0.253952,2.20288 0.0921313,4.6231 5.07667,10.4144 1.65718,2.81119 4.19197,4.18961 7.25711,5.25267 5.21487,1.80719 17.2841,1.96074 22.5722,0.511447 5.64127,-1.54615 11.9168,-5.23731 16.873,-8.36977 6.11728,-3.86597 13.4169,-11.742 18.822,-18.7889 5.40504,-7.04686 11.1077,-14.2992 21.3071,-18.0837 3.70297,-1.3737 6.02161,-1.35835 9.91711,-1.55678 1.83554,-0.0933125 5.02234,0.294111 7.01615,0.683898 1.99382,0.389786 2.53007,0.539795 4.43057,1.11621 1.9005,0.577592 2.70842,0.79729 2.99072,0.858711 0.283481,0.062602 -0.200799,-1.49891 -0.812645,-3.39823 -0.613027,-1.89932 -1.51662,-3.86361 -2.13201,-5.48417 -0.967379,-3.15018 -1.93003,-4.2026 -3.46437,-7.05749 -1.61702,-3.0108 -3.18562,-4.75539 -5.52788,-7.32089 -2.04342,-2.2395 -4.07504,-4.28411 -6.50471,-6.11492 -4.33726,-3.26712 -10.6128,-6.42439 -16.8482,-8.26583 -6.2354,-1.84263 -14.9749,-2.7285 -22.5107,-2.48164z"/>
       <path id="_402934384" class="fil5" d="M187.427 225.246c0.675629,0.718152 0.791384,0.467743 2.20525,0.467743l1.832 -0.126385c1.10085,-0.041341 2.9104,0.138197 3.90022,-0.0200799 0.731145,-0.116936 1.11148,-0.0838631 1.86743,-0.0933125 1.41859,-0.0177176 4.92076,-1.00281 5.76884,-0.764217 0.233872,0.0661455 0.496092,0.177176 0.719333,0.269307 4.70342,1.92531 9.09856,12.0692 13.9662,15.3151 4.30655,2.87143 6.3169,2.86434 11.5081,4.15063l0.385062 -0.608303c-0.569324,-0.973284 -0.667361,-0.663818 -1.70915,-0.985096 -5.31409,-1.63946 -4.94792,-0.687441 -9.88994,-3.95338 -2.92222,-1.93121 -6.79173,-8.98634 -9.94191,-12.1105 -0.460656,-0.455932 -0.761855,-0.96856 -1.28629,-1.40914l-1.56151 -1.25677c0.490186,-0.224422 1.32527,-0.377975 1.88397,-0.565781 0.596491,-0.20198 1.19653,-0.428765 1.80837,-0.642557 1.02762,-0.359076 2.55842,-0.993364 3.53524,-1.48709l6.48226 -3.44075c0.604759,0.0318916 1.48709,0.266945 2.10603,0.364982 6.54841,1.03825 14.3902,5.67434 21.3036,6.38423l9.56394 0.481918 0.381518 -0.7465 -0.421678 -0.562237c-1.63002,-0.19135 -3.94511,0.048428 -5.61174,-0.146465 -0.922494,-0.107487 -1.95838,-0.055515 -3.3746,-0.300017 -6.96654,-1.20125 -11.7125,-3.46792 -18.2243,-5.66489 -1.24141,-0.418134 -2.55723,-0.663818 -3.84235,-0.935487 0.245683,-0.386243 0.972103,-0.765398 1.41622,-1.09258 0.842175,-0.618933 8.85523,-8.0166 9.42456,-8.58475 1.72097,-1.72215 3.42421,-3.42303 5.14518,-5.14636 0.858711,-0.859892 1.832,-1.58749 2.69425,-2.44975l2.63519 -2.51117c1.43867,-0.168907 3.02852,-0.0472468 4.37033,0.223241 3.31082,0.66618 7.10592,2.42376 10.262,3.70297l13.2834 5.37196 0.596491 -0.385062c0,-1.16818 -0.967379,-1.21188 -2.73205,-1.92413 -1.10439,-0.445301 -2.17926,-0.936668 -3.2872,-1.3678 -4.45774,-1.73514 -8.91429,-3.46319 -13.3366,-5.28456 -2.94702,-1.21424 -4.5168,-1.52843 -7.5843,-1.74695 1.0666,-1.35362 4.153,-3.42067 5.60229,-4.52388 1.66545,-1.26621 5.02352,-2.7852 6.9819,-3.30964 5.49835,-1.47174 7.78037,-1.37488 13.2787,-0.00118117 3.89196,0.972103 7.41184,2.57968 11.0416,4.39395 1.17881,0.590585 2.22178,1.20716 3.3498,1.79656 2.43794,1.27212 7.23703,4.56286 9.13753,6.298 0.902414,0.823276 1.82963,1.58986 2.69307,2.45329 1.33472,1.33354 1.05833,1.21424 2.68953,2.50526l0.465381 -0.492548 0 -0.146465c-0.0496092,-0.463019 -0.226785,-0.657912 -0.581136,-1.0099 -0.902414,-0.898871 -1.74341,-1.95956 -2.69307,-2.81945 -3.81872,-3.4561 -8.25874,-6.66889 -12.9374,-8.99225 -3.60493,-1.79065 -6.22241,-3.17026 -10.112,-4.46719 -2.85371,-0.950842 -5.94719,-1.72687 -8.95682,-1.94657 -1.16109,-0.0850443 -2.39305,0.041341 -3.55414,0.124023 0.981553,-1.50009 1.92649,-3.06396 2.8667,-4.60656 0.989821,-1.62411 1.85089,-2.97537 3.22814,-4.36797 1.0725,-1.0855 3.2742,-2.32572 4.78138,-2.69071 1.10912,-0.269307 2.18398,-0.320097 3.28602,-0.512628 1.74695,-0.305923 1.28275,-0.041341 2.99427,-0.798471l0.0177176 -0.400417 -0.422859 -0.435852c-0.556331,-0.276394 -6.37241,0.806739 -7.14962,1.11739 -5.24558,2.08831 -7.28546,6.38068 -10.0435,10.9069 -0.591766,0.970922 -0.920132,2.05051 -1.98319,2.30446 -5.93893,1.41386 -8.93792,3.84589 -13.5244,7.42366l-6.59211 6.02751c0,-3.36279 -0.0212611,-6.47163 0.518534,-9.65016 0.668542,-3.93802 1.90759,-7.89376 3.89432,-11.2979 1.08904,-1.86625 4.98454,-7.11183 6.37832,-9.07966l-0.613027 -0.613027c-0.960292,0.26222 -4.10575,4.92902 -4.81209,5.98972 -1.656,2.48636 -2.80764,3.89668 -3.96873,6.81299 -1.34417,3.37579 -1.82609,6.14209 -2.45211,9.67733 -0.402779,2.27612 -0.159458,8.53041 -0.29293,9.26274 -0.124023,0.682717 -6.58384,6.64408 -7.56422,7.62682 -0.856349,0.85753 -1.86389,1.60757 -2.69543,2.45093 -0.809102,0.819732 -1.7316,1.63002 -2.63401,2.38833 -0.943755,0.793747 -1.83672,1.56859 -2.82064,2.32572l-6.45982 3.83172c0.411047,-1.72333 1.57686,-3.14073 1.7127,-6.86378l0.125204 -1.95838c-0.00354351,-0.784297 0.125204,-1.2733 0.122842,-2.0824l0.00472468 -3.19034c-0.0177176,-0.476012 -0.114574,-0.493729 -0.132291,-0.969741 -0.0248046,-0.681535 0.0354351,-1.4115 0.00944936,-2.09303l-0.347264 -6.14563c-0.198437,-1.24377 -0.0224422,-6.85079 -0.0248046,-8.55167 -0.00236234,-1.23669 0.210248,-2.67299 0.438214,-3.84943 0.414591,-2.13083 1.63356,-3.9392 2.8667,-5.70978 0.563418,-0.807921 1.41977,-1.57214 1.96311,-2.32572 0.913045,-1.26621 7.21577,-6.82362 8.85169,-8.33788l-0.429946 -0.592948c-1.08077,-0.0295293 -1.30874,0.826819 -2.10012,1.40914 -0.602397,0.44412 -1.12684,0.989821 -1.74105,1.44457 -1.05833,0.784297 -2.44502,2.04224 -3.38642,2.98364 -2.14973,2.14973 -4.13173,4.18134 -5.72986,6.88859 -2.0765,3.51871 -2.08004,6.38541 -2.08004,10.5408 0,1.46583 -0.175994,4.99635 0.048428,6.19996 0.179538,0.963835 0.00826819,1.98555 0.172451,3.01317 0.0649644,0.409866 0.0259857,1.12566 0.0236234,1.56859l0.238596 4.41758c0.160639,1.3737 0.0531527,3.28129 -0.107487,4.65617l-0.138197 3.04742c-0.0425221,0.387424 -0.16182,0.974466 -0.224422,1.3678 -0.329547,2.06587 -0.713427,2.87851 -1.48355,4.76602 -0.54452,1.33827 -0.203161,1.05951 -1.50954,1.6749 -4.73886,2.22769 -10.0648,3.39587 -15.2784,3.5884l-3.05805 0.127566c-1.11148,0 -2.00563,0.124023 -3.06159,0.121661 -1.03471,-0.00118117 -2.14619,-0.33309 -2.32809,0.794928l0 0.0850443z"/>
      </g>
      <polygon id="_402930736" class="fil2" points="299.747,202.781 301.286,206.805 297.266,205.67 "/>
     </g>
     <g>
      <g>
       <g>
        <path id="_402930760" class="fil2" d="M171.385 243.74c1.72569,-2.01271 3.53288,-4.39632 4.48609,-6.88386 0.579955,-1.5178 0.669724,-2.64937 0.849262,-4.21324 0.0992183,-0.852805 -0.0377975,-1.67372 -0.458294,-2.42612 -0.90832,-1.62411 -2.71787,-2.29383 -4.12701,-3.36161 -0.732326,-0.55515 -1.27921,-1.16463 -1.45048,-2.09894 -0.677992,-3.68171 -0.892965,-7.40594 -1.18826,-11.1302 -0.57523,-7.25239 -1.50127,-14.9749 -3.69234,-21.9272 -2.04461,-6.49171 -5.02942,-11.5105 -10.1758,-16.0202 -10.5467,-9.23793 -25.1081,-12.2854 -38.7589,-12.733 -2.72378,-0.089769 -5.45937,-0.0342539 -8.17842,0.140559 -4.87942,0.314191 -10.0931,1.01108 -14.7894,2.39896 -5.94837,1.7564 -12.3669,4.77429 -17.3101,8.49852 -2.47573,1.86507 -4.6172,4.01007 -6.70314,6.29446 -2.29383,2.51353 -4.10575,4.58294 -5.7334,7.61264 -0.618933,1.15164 -1.29102,2.27375 -1.90405,3.42539 -0.66618,1.25322 -1.19298,2.50526 -1.65364,3.84707 -0.637832,1.86034 -1.53198,3.62265 -2.1391,5.51016 -0.257495,0.794928 -0.520896,1.5993 -0.738232,2.40723 -0.256314,0.953205 -0.507903,2.19698 0.647281,2.7415 0.380337,0.178357 0.680354,0.168907 0.961473,0.107487 1.01344,-0.220879 2.11075,-0.587042 3.10412,-0.88824 0.692166,-0.210248 1.38788,-0.42404 2.08949,-0.603578 0.72642,-0.186625 1.46229,-0.33309 2.19816,-0.477193 1.03352,-0.20198 2.08949,-0.354351 3.13719,-0.471287 1.12802,-0.127566 2.39187,-0.245683 3.52697,-0.187806 1.65364,0.0838631 3.34035,0.124023 4.98336,0.335452 1.57096,0.203161 3.01789,0.581136 4.5038,1.13274 9.40802,3.49036 14.767,9.92065 20.6622,17.6077 1.90168,2.4781 3.89786,4.88886 5.98145,7.21577 2.0954,2.33872 4.29119,4.61011 6.60983,6.73149 2.04697,1.87216 4.25812,3.69943 6.60747,5.18416 5.17471,3.27184 11.344,6.9193 17.2628,8.54222 1.68671,0.461838 3.54233,0.687441 5.28219,0.831544 2.13319,0.175994 4.29001,0.225604 6.43029,0.185444 2.14382,-0.041341 4.30655,-0.173632 6.43384,-0.441758 1.74459,-0.219698 3.61911,-0.538614 5.28219,-1.11502 3.32027,-1.15164 6.10429,-2.69779 7.96109,-5.7712z"/>
       </g>
       <path id="_402929032" class="fil0" d="M116.822 164.392c13.2787,0.437033 27.5697,3.3687 37.853,12.3763 4.9491,4.33608 7.78037,9.11273 9.74938,15.3658 2.11902,6.72204 3.07222,14.5863 3.62974,21.606 0.303561,3.82935 0.509084,7.4839 1.20716,11.279 0.759493,4.12583 6.43029,3.92503 6.02279,7.45791 -0.253952,2.20288 -0.0921313,4.6231 -5.07667,10.4144 -1.65836,2.81119 -4.19316,4.18961 -7.25711,5.25267 -5.21487,1.80719 -17.2852,1.96074 -22.5733,0.511447 -5.64009,-1.54615 -11.9156,-5.23731 -16.8718,-8.36977 -6.11728,-3.86597 -13.4181,-11.742 -18.8231,-18.7889 -5.40504,-7.04686 -11.1065,-14.2992 -21.3071,-18.0837 -3.70179,-1.3737 -6.02043,-1.35835 -9.91711,-1.55678 -1.83436,-0.0933125 -5.02116,0.294111 -7.01615,0.683898 -1.99382,0.389786 -2.52889,0.539795 -4.42939,1.11621 -1.9005,0.577592 -2.70961,0.79729 -2.9919,0.858711 -0.2823,0.062602 0.20198,-1.49891 0.813826,-3.39823 0.613027,-1.89932 1.51662,-3.86361 2.13201,-5.48417 0.966197,-3.15018 1.93003,-4.2026 3.46319,-7.05749 1.6182,-3.0108 3.18562,-4.75539 5.52788,-7.32089 2.04461,-2.2395 4.07504,-4.28411 6.50471,-6.11492 4.33844,-3.26712 10.614,-6.42439 16.8482,-8.26583 6.2354,-1.84263 14.9761,-2.7285 22.5119,-2.48164z"/>
       <path id="_402929680" class="fil5" d="M170.13 225.246c-0.676811,0.718152 -0.791384,0.467743 -2.20525,0.467743l-1.83318 -0.126385c-1.10085,-0.041341 -2.90922,0.138197 -3.90022,-0.0200799 -0.731145,-0.116936 -1.1103,-0.0838631 -1.86625,-0.0933125 -1.41859,-0.0177176 -4.92076,-1.00281 -5.76884,-0.764217 -0.233872,0.0661455 -0.496092,0.177176 -0.720514,0.269307 -4.70224,1.92531 -9.09737,12.0692 -13.965,15.3151 -4.30773,2.87143 -6.31808,2.86434 -11.5081,4.15063l-0.386243 -0.608303c0.570505,-0.973284 0.667361,-0.663818 1.71033,-0.985096 5.31409,-1.63946 4.94792,-0.687441 9.88994,-3.95338 2.92103,-1.93121 6.79173,-8.98634 9.94191,-12.1105 0.460656,-0.455932 0.761855,-0.96856 1.28629,-1.40914l1.56151 -1.25677c-0.490186,-0.224422 -1.32527,-0.377975 -1.88397,-0.565781 -0.597672,-0.20198 -1.19653,-0.428765 -1.80837,-0.642557 -1.02762,-0.359076 -2.55842,-0.993364 -3.53524,-1.48709l-6.48344 -3.44075c-0.604759,0.0318916 -1.48591,0.266945 -2.10485,0.364982 -6.54841,1.03825 -14.3902,5.67434 -21.3036,6.38423l-9.56394 0.481918 -0.381518 -0.7465 0.420497 -0.562237c1.6312,-0.19135 3.94629,0.048428 5.61174,-0.146465 0.922494,-0.107487 1.95838,-0.055515 3.37579,-0.300017 6.96654,-1.20125 11.7125,-3.46792 18.2243,-5.66489 1.24141,-0.418134 2.55723,-0.663818 3.84235,-0.935487 -0.246865,-0.386243 -0.972103,-0.765398 -1.41622,-1.09258 -0.842175,-0.618933 -8.85523,-8.0166 -9.42456,-8.58475 -1.72215,-1.72215 -3.42421,-3.42303 -5.14518,-5.14636 -0.858711,-0.859892 -1.832,-1.58749 -2.69543,-2.44975l-2.63519 -2.51117c-1.43748,-0.168907 -3.02852,-0.0472468 -4.36915,0.223241 -3.31082,0.66618 -7.10592,2.42376 -10.262,3.70297l-13.2834 5.37196 -0.597672 -0.385062c0.00118117,-1.16818 0.96856,-1.21188 2.73323,-1.92413 1.10439,-0.445301 2.17926,-0.936668 3.28602,-1.3678 4.45892,-1.73514 8.91429,-3.46319 13.3378,-5.28456 2.94702,-1.21424 4.5168,-1.52843 7.5843,-1.74695 -1.0666,-1.35362 -4.153,-3.42067 -5.60347,-4.52388 -1.66427,-1.26621 -5.02352,-2.7852 -6.98072,-3.30964 -5.49953,-1.47174 -7.78155,-1.37488 -13.2799,-0.00118117 -3.89196,0.972103 -7.41066,2.57968 -11.0416,4.39395 -1.17881,0.590585 -2.2206,1.20716 -3.34862,1.79656 -2.43912,1.27212 -7.23703,4.56286 -9.13872,6.298 -0.902414,0.823276 -1.82963,1.58986 -2.69307,2.45329 -1.33354,1.33354 -1.05833,1.21424 -2.68953,2.50526l-0.4642 -0.492548 0 -0.146465c0.0496092,-0.463019 0.226785,-0.657912 0.579955,-1.0099 0.902414,-0.898871 1.74459,-1.95956 2.69425,-2.81945 3.81872,-3.4561 8.25874,-6.66889 12.9374,-8.99225 3.60493,-1.79065 6.22122,-3.17026 10.112,-4.46719 2.85371,-0.950842 5.94601,-1.72687 8.95563,-1.94657 1.16109,-0.0850443 2.39423,0.041341 3.55532,0.124023 -0.981553,-1.50009 -1.92649,-3.06396 -2.8667,-4.60656 -0.989821,-1.62411 -1.85089,-2.97537 -3.22814,-4.36797 -1.0725,-1.0855 -3.27539,-2.32572 -4.78138,-2.69071 -1.10912,-0.269307 -2.18398,-0.320097 -3.28602,-0.512628 -1.74695,-0.305923 -1.28393,-0.041341 -2.99427,-0.798471l-0.0177176 -0.400417 0.421678 -0.435852c0.557512,-0.276394 6.3736,0.806739 7.15081,1.11739 5.2444,2.08831 7.28546,6.38068 10.0423,10.9069 0.591766,0.970922 0.921313,2.05051 1.98437,2.30446 5.93893,1.41386 8.93792,3.84589 13.5244,7.42366l6.59211 6.02751c0,-3.36279 0.0200799,-6.47163 -0.519715,-9.65016 -0.668542,-3.93802 -1.90759,-7.89376 -3.89432,-11.2979 -1.08786,-1.86625 -4.98454,-7.11183 -6.37714,-9.07966l0.611846 -0.613027c0.961473,0.26222 4.10693,4.92902 4.81327,5.98972 1.656,2.48636 2.80764,3.89668 3.96873,6.81299 1.34417,3.37579 1.82609,6.14209 2.45093,9.67733 0.40396,2.27612 0.159458,8.53041 0.294111,9.26274 0.124023,0.682717 6.58266,6.64408 7.56422,7.62682 0.855167,0.85753 1.86271,1.60757 2.69543,2.45093 0.809102,0.819732 1.7316,1.63002 2.63401,2.38833 0.943755,0.793747 1.83554,1.56859 2.81945,2.32572l6.45982 3.83172c-0.409866,-1.72333 -1.57686,-3.14073 -1.7127,-6.86378l-0.124023 -1.95838c0.00354351,-0.784297 -0.126385,-1.2733 -0.122842,-2.0824l-0.00472468 -3.19034c0.0165364,-0.476012 0.114574,-0.493729 0.132291,-0.969741 0.0248046,-0.681535 -0.0354351,-1.4115 -0.0106305,-2.09303l0.348445 -6.14563c0.198437,-1.24377 0.0212611,-6.85079 0.0248046,-8.55167 0.00118117,-1.23669 -0.210248,-2.67299 -0.439395,-3.84943 -0.41341,-2.13083 -1.63238,-3.9392 -2.8667,-5.70978 -0.562237,-0.807921 -1.41859,-1.57214 -1.96192,-2.32572 -0.913045,-1.26621 -7.21577,-6.82362 -8.85169,-8.33788l0.428765 -0.592948c1.08195,-0.0295293 1.30992,0.826819 2.10012,1.40914 0.603578,0.44412 1.12684,0.989821 1.74105,1.44457 1.05833,0.784297 2.4462,2.04224 3.3876,2.98364 2.14855,2.14973 4.13173,4.18134 5.72986,6.88859 2.0765,3.51871 2.08004,6.38541 2.08004,10.5408 0,1.46583 0.174813,4.99635 -0.048428,6.19996 -0.179538,0.963835 -0.00826819,1.98555 -0.172451,3.01317 -0.0649644,0.409866 -0.0259857,1.12566 -0.0248046,1.56859l-0.237415 4.41758c-0.16182,1.3737 -0.0543338,3.28129 0.107487,4.65617l0.138197 3.04742c0.0425221,0.387424 0.16182,0.974466 0.224422,1.3678 0.328365,2.06587 0.713427,2.87851 1.48237,4.76602 0.545701,1.33827 0.203161,1.05951 1.51072,1.6749 4.73886,2.22769 10.0648,3.39587 15.2773,3.5884l3.05805 0.127566c1.11266,0 2.00681,0.124023 3.06277,0.121661 1.03471,-0.00118117 2.14619,-0.33309 2.32809,0.794928l0 0.0850443z"/>
      </g>
      <polygon id="_402931840" class="fil2" points="57.81,202.781 56.271,206.805 60.2905,205.67 "/>
     </g>
    </g>
    <g>
     <path id="_402929632" class="fil2" d="M179.018 67.6326c-5.7086,-3.13601 -8.28237,-10.34 -8.28237,-16.5364 0,-6.39368 2.73441,-14.6701 8.1548,-18.4274l0.824457 -0.570505 0.824457 0.570505c5.42039,3.7573 8.15362,12.0349 8.15362,18.4274 0,6.19642 -2.57377,13.4004 -8.28119,16.5364l-0.696891 0.382699 -0.696891 -0.382699zm15.5371 87.2082c-0.675629,-3.95456 0.19135,-8.05913 1.85916,-11.6617 1.92885,-4.16599 4.97273,-7.8158 8.5564,-10.6636 1.23314,-0.980371 2.53834,-1.87334 3.89314,-2.67653 3.46792,-2.05524 7.37405,-3.59548 11.3345,-4.36797 3.50808,-0.685079 7.37759,-0.818551 10.829,0.225604l0.960292 0.290568 0.0649644 1.00045c0.236234,3.59903 -0.767761,7.33861 -2.22769,10.601 -1.64773,3.68289 -4.03133,7.14018 -6.81772,10.0541 -1.08786,1.13983 -2.25249,2.20761 -3.48563,3.18798 -3.58367,2.8478 -7.82644,4.9869 -12.3208,5.92475 -3.88605,0.810283 -8.08039,0.727601 -11.7798,-0.824457l-0.733507 -0.305923 -0.132291 -0.784297zm0.523259 -26.822c-0.884697,-3.69706 -0.321278,-7.63036 1.03116,-11.1408 1.56269,-4.05378 4.20851,-7.68942 7.41421,-10.601 1.10439,-1.00163 2.27966,-1.92413 3.50926,-2.7663 5.59639,-3.83644 13.8433,-6.86851 20.6717,-5.28574l0.976828 0.225604 0.13111 0.994546c0.916588,6.94883 -2.89623,14.8674 -7.25357,20.0681 -0.955567,1.14219 -1.98791,2.22414 -3.0923,3.22578 -3.2057,2.91159 -7.07875,5.19361 -11.2636,6.35942 -3.62383,1.00872 -7.59374,1.18944 -11.188,-0.0472468l-0.751224 -0.258676 -0.185444 -0.773667zm-5.57867 -22.0147c-1.09495,-3.17381 -0.939031,-6.67716 -0.0507903,-9.87931 1.02171,-3.68171 3.02616,-7.09057 5.58339,-9.91356 0.879972,-0.969741 1.82963,-1.87806 2.83363,-2.72024 4.57822,-3.84235 11.5341,-7.18978 17.6561,-6.38659l0.994546 0.129929 0.226785 0.976828c1.39851,6.01452 -1.25322,13.2669 -4.62901,18.1995 -0.738232,1.08077 -1.54851,2.1143 -2.42849,3.08522 -2.55842,2.82182 -5.75466,5.15108 -9.31825,6.52833 -3.10057,1.19771 -6.57085,1.6938 -9.83561,0.915407l-0.773667 -0.184263 -0.258676 -0.751224zm-7.03741 -22.3229c-0.905958,-2.65763 -0.770123,-5.58339 -0.0165364,-8.26111 0.859892,-3.05805 2.53479,-5.88459 4.67035,-8.22449 3.99117,-4.37151 11.0168,-8.31072 17.0679,-7.49453l0.993364 0.134653 0.224422 0.976828c1.14574,5.01525 -1.06423,11.025 -3.89314,15.1272 -0.616571,0.894146 -1.29102,1.74931 -2.02334,2.55133 -2.13556,2.33872 -4.80028,4.26403 -7.7662,5.39795 -2.59739,0.992183 -5.49953,1.39378 -8.22921,0.732326l-0.771304 -0.187806 -0.256314 -0.752406zm-20.9067 72.2498c-3.69943,1.55206 -7.89258,1.63474 -11.7798,0.824457 -4.49317,-0.937849 -8.73712,-3.07695 -12.3208,-5.92475 -1.23314,-0.980371 -2.39659,-2.04815 -3.48563,-3.18798 -2.78638,-2.91395 -5.1688,-6.37123 -6.81653,-10.0541 -1.45993,-3.26239 -2.46392,-7.00198 -2.22887,-10.601l0.0661455 -1.00045 0.95911 -0.290568c3.45256,-1.04415 7.32208,-0.910682 10.8302,-0.225604 3.95928,0.772485 7.8666,2.31273 11.3333,4.36797 1.35598,0.803196 2.66,1.69616 3.89432,2.67653 3.58367,2.8478 6.62637,6.49762 8.55522,10.6636 1.66781,3.60257 2.53597,7.70714 1.86034,11.6617l-0.133472 0.784297 -0.733507 0.305923zm-0.592948 -26.8799c-3.5943,1.23669 -7.56422,1.05597 -11.1892,0.0472468 -4.18489,-1.16582 -8.05676,-3.44784 -11.2636,-6.35942 -1.10321,-1.00163 -2.13556,-2.08358 -3.0923,-3.22578 -4.35616,-5.20069 -8.17016,-13.1193 -7.25239,-20.0681l0.129929 -0.994546 0.978009 -0.225604c6.82717,-1.58277 15.0753,1.4493 20.6717,5.28574 1.22842,0.842175 2.40486,1.76467 3.50808,2.7663 3.20688,2.91159 5.8527,6.54723 7.41421,10.601 1.35362,3.51044 1.91704,7.44374 1.03234,11.1408l-0.185444 0.773667 -0.751224 0.258676zm5.48299 -22.1115c-3.26476,0.778391 -6.73622,0.2823 -9.83561,-0.915407 -3.56359,-1.37724 -6.75984,-3.70651 -9.31825,-6.52833 -0.878791,-0.970922 -1.68907,-2.00445 -2.42967,-3.08522 -3.3746,-4.93257 -6.02633,-12.185 -4.62901,-18.1995l0.226785 -0.976828 0.994546 -0.129929c6.12201,-0.803196 13.0779,2.54424 17.6573,6.38659 1.00281,0.842175 1.95247,1.75049 2.83245,2.72024 2.55842,2.823 4.56286,6.23186 5.58457,9.91356 0.88824,3.20215 1.04297,6.7055 -0.0519715,9.87931l-0.258676 0.751224 -0.772485 0.184263zm7.04096 -22.3182c-2.72968,0.661455 -5.63182,0.259857 -8.22803,-0.732326 -2.9671,-1.13392 -5.63064,-3.05923 -7.7662,-5.39795 -0.733507,-0.802015 -1.40796,-1.65718 -2.02453,-2.55133 -2.82772,-4.1022 -5.03887,-10.112 -3.89314,-15.1272l0.224422 -0.976828 0.993364 -0.134653c6.05232,-0.816189 13.0779,3.12301 17.0691,7.49453 2.13556,2.3399 3.81046,5.16644 4.67035,8.22449 0.753587,2.67771 0.88824,5.60347 -0.0165364,8.26111l-0.256314 0.752406 -0.772485 0.187806z"/>
    </g>
    <g>
     <path id="_402929560" class="fil6" d="M179.715 66.3641l0 0 0 0 0 0c4.41403,-2.42376 7.53114,-8.34615 7.53114,-15.2678 0,-6.92166 -3.11711,-14.1788 -7.53114,-17.2368l0 0 0 0 0 0 0 0c-4.41285,3.05805 -7.53114,10.3152 -7.53114,17.2368 0,6.92166 3.11829,12.844 7.53114,15.2678l0 0z"/>
     <path id="_402928768" class="fil6" d="M195.981 154.597l0 0.00118117 0 0 0.00118117 0c6.31808,2.64937 15.2654,0.95911 22.6395,-4.90068 7.37405,-5.85861 12.4649,-15.3245 11.9877,-22.6159l0 0 0 0 0 -0.00118117 0 0.00118117c-6.99489,-2.11311 -17.3656,0.707521 -24.7384,6.56613 -7.37405,5.85979 -11.0428,14.1953 -9.88994,20.9492l0 0z"/>
     <path id="_402928888" class="fil6" d="M196.485 127.683l0 0 0 0 0.00118117 0c6.11138,2.10366 14.4304,-0.0425221 21.0083,-6.0157 6.57912,-5.97318 10.7853,-15.1981 9.88403,-22.0336l0 0 0 0 0 0 -0.00118117 0c-6.71495,-1.5556 -16.3025,1.74223 -22.8805,7.71541 -6.57794,5.972 -9.51551,14.0465 -8.01188,20.3338l0 0z"/>
     <path id="_402954904" class="fil6" d="M190.868 105.533l0 0 0 0 0 0c5.49008,1.30874 12.5369,-1.26149 17.7459,-7.00907 5.21014,-5.74758 8.08275,-14.1221 6.72086,-19.9842l0 0 0 0 0 -0.00118117 0 0.00118117c-5.96727,-0.783116 -14.0193,2.89623 -19.2295,8.64381 -5.20896,5.74876 -7.07757,13.013 -5.23731,18.3483l0 0.00118117z"/>
     <path id="_402959176" class="fil6" d="M183.831 83.2158l0.00118117 0 0 0 0 0c4.50026,1.09022 10.2915,-0.998089 14.5839,-5.70033 4.29237,-4.70106 6.67479,-11.5648 5.57512,-16.3805l0 0 0 0 -0.00118117 0 0 0c-4.89477,-0.659093 -11.5129,2.33517 -15.8052,7.03741 -4.29355,4.70224 -5.84797,10.6589 -4.35379,15.0422l0 0.00118117z"/>
     <path id="_402955048" class="fil6" d="M160.997 154.597l-0.00118117 0.00118117 0 0 0 0c-6.31808,2.64937 -15.2666,0.95911 -22.6395,-4.90068 -7.37405,-5.85861 -12.4649,-15.3245 -11.9877,-22.6159l0 0 0 0 0 -0.00118117 0 0.00118117c6.99489,-2.11311 17.3644,0.707521 24.7384,6.56613 7.37405,5.85979 11.0428,14.1953 9.88876,20.9492l0.00118117 0z"/>
     <path id="_402953896" class="fil6" d="M160.493 127.683l-0.00118117 0 0 0 0 0c-6.11256,2.10366 -14.4304,-0.0425221 -21.0095,-6.0157 -6.57794,-5.97318 -10.7841,-15.1981 -9.88285,-22.0336l0 0 0 0 0 0 0 0c6.71614,-1.5556 16.3025,1.74223 22.8816,7.71541 6.57794,5.972 9.51551,14.0465 8.0107,20.3338l0.00118117 0z"/>
     <path id="_402954808" class="fil6" d="M166.11 105.533l-0.00118117 0 0 0 0 0c-5.4889,1.30874 -12.5358,-1.26149 -17.7459,-7.00907 -5.21014,-5.74758 -8.08275,-14.1221 -6.71968,-19.9842l0 0 0 0 0 -0.00118117 0 0.00118117c5.96727,-0.783116 14.0193,2.89623 19.2283,8.64381 5.21014,5.74876 7.07875,13.013 5.23849,18.3483l0 0.00118117z"/>
     <path id="_402957832" class="fil6" d="M173.145 83.2158l0 0 0 0 0 0c-4.50144,1.09022 -10.2915,-0.998089 -14.5851,-5.70033 -4.29237,-4.70106 -6.67479,-11.5648 -5.57394,-16.3805l0 0 0 0 0 0 0 0c4.89477,-0.659093 11.514,2.33517 15.8064,7.03741 4.29237,4.70224 5.84797,10.6589 4.35261,15.0422l0 0.00118117z"/>
    </g>
    <polyline id="_402947296" class="fil7" points="282.045,211.47 281.72,211.432 267.679,234.254 "/>
    <polyline id="_402960832" class="fil7" points="75.7154,211.47 76.0402,211.432 90.0808,234.254 "/>
    <g>
     <path id="_402952216" class="fil2" d="M98.9762 251.579c-5.04242,-4.1152 -9.7671,-8.61546 -14.1233,-13.4524l-8.0733 4.968 -19.5425 -31.7664 20.9303 -2.45093 0.472468 0.839812c5.34243,9.4848 12.0149,18.19 19.7787,25.8192 21.4441,21.0744 49.9812,32.8732 80.0704,32.8732 30.0891,0 58.6239,-11.7987 80.068,-32.8708 7.76501,-7.63036 14.4374,-16.3356 19.7799,-25.8216l0.473649 -0.839812 20.9303 2.45093 -19.5436 31.7664 -8.07448 -4.968c-4.35616,4.83689 -9.08084,9.33597 -14.1221,13.4512l5.25857 8.22095 -35.1469 22.4824 -6.38777 -9.98798c-7.38113,2.71669 -15.008,4.73177 -22.7671,6.02161l0 10.5349 -40.9382 0 0 -10.5372c-7.75793,-1.28984 -15.3847,-3.30491 -22.7659,-6.01924l-6.38777 9.98798 -35.1469 -22.4824 5.25739 -8.21977z"/>
    </g>
    <path id="_402939160" class="fil8" d="M178.489 269.856l0 0c-43.3891,-0.142922 -81.1866,-24.0604 -101.109,-59.4294l-4.59948 0.538614 -13.1228 1.53552 17.5971 28.602 7.8725 -4.84398c4.89359,5.53969 10.2691,10.6412 16.0592,15.2406l-0.29293 -0.233872 -5.17589 8.09338 32.709 20.9221 6.23776 -9.75292 -0.175994 -0.0673267c7.96936,3.0297 16.3273,5.26802 24.9782,6.6181l0 10.3234 19.0228 0 0 0 19.0216 0 0 -10.3199c8.58829,-1.34063 16.8872,-3.5565 24.8034,-6.55431l6.23776 9.75292 32.7078 -20.9221 -5.17471 -8.09338c-0.927219,0.741775 -1.86625,1.46938 -2.81473,2.18398 6.75866,-5.09557 12.987,-10.8609 18.5857,-17.199l-0.00708702 0.00708702 7.87486 4.84516 17.5959 -28.602 -13.1216 -1.53552 -4.59948 -0.538614c-19.9228,35.369 -57.7203,59.2865 -101.109,59.4294z"/>
    <path id="_402953272" class="fil5" d="M172.418 237.683c-0.0177176,-1.34653 0.572868,-4.74122 0.620114,-6.24012l0.367344 -9.31235c0.0543338,-1.80483 -0.041341,-18.0081 -0.200799,-19.0499 -0.140559,-0.911864 0.0366163,-1.80247 -0.103943,-2.71433 -0.231509,-1.50717 -0.167726,-3.3935 -0.412228,-5.22314 -0.445301,-3.32972 -4.44474,-12.6704 -6.42202,-15.6304 -3.01907,-4.52152 -6.75275,-7.86541 -11.0699,-11.1054 -4.45892,-3.34862 -9.57339,-5.88577 -15.0694,-6.9819 -7.06458,-1.40914 -12.5641,-0.68626 -19.4562,1.10558 -4.74594,1.23432 -14.5012,3.0486 -18.8586,0.579955 -2.73205,-1.54851 -3.68289,-4.49435 -3.51398,-7.51933 0.134653,-2.41786 0.879972,-7.25829 1.22724,-9.92065 -0.774848,0.700434 -4.06205,5.633 -4.82862,6.81063 -3.14782,4.83689 -3.86951,8.29418 -2.44857,13.8221 0.474831,1.84735 1.06423,2.25367 2.59739,3.28365 3.16908,2.12965 3.80101,3.04033 7.60556,4.15536 2.01508,0.591766 3.39823,0.400417 5.41212,0.468925 1.65246,0.0566962 0.190168,0.30238 2.64346,-0.0366163 4.7613,-0.659093 7.79691,-1.25322 12.5263,-2.17572 1.60403,-0.314191 3.86715,-0.347264 5.52433,-0.351989 2.7037,-0.00944936 12.192,2.23241 14.5284,3.11357 5.95664,2.24659 9.32298,5.64836 12.3385,11.0617 3.83172,6.87559 5.71568,15.8123 5.72277,23.6813 0.00354351,3.63092 0.0224422,5.05895 -0.236234,8.58475l-0.510266 5.38377c-0.125204,1.02289 0.225604,0.978009 0.904777,1.8001 1.15046,1.3926 4.60066,4.981 5.54678,6.21414 0.388605,0.506722 5.18652,5.90703 5.56568,6.19642z"/>
    <path id="_402960112" class="fil5" d="M196.817 190.8c0.271669,0.389786 0.296474,0.398054 0.799652,0.248046l0.00590585 -0.647281c-0.33309,0.177176 -0.41341,0.0850443 -0.805558,0.399236z"/>
    <path id="_402928432" class="fil5" d="M83.8655 218.161c0.351989,0.354351 0.173632,0.296474 0.693347,0.265763 -0.0496092,-0.35317 0.00708702,-0.474831 -0.265763,-0.815008 -0.274032,0.63547 0.194893,0.225604 -0.427584,0.549244z"/>
    <path id="_402930352" class="fil5" d="M184.56 236.873c0.0177176,-1.34653 -0.572868,-4.74122 -0.621296,-6.24012l-0.366163 -9.31235c-0.055515,-1.80483 0.0401598,-18.0081 0.200799,-19.0499 0.140559,-0.911864 -0.0377975,-1.80247 0.102762,-2.71433 0.232691,-1.50717 0.167726,-3.3935 0.412228,-5.22314 0.445301,-3.3309 4.44593,-12.6704 6.42202,-15.6316 3.01907,-4.52152 6.75275,-7.86423 11.0699,-11.1042 4.4601,-3.34862 9.57457,-5.88695 15.0706,-6.9819 7.0634,-1.40914 12.5641,-0.687441 19.4551,1.10558 4.74712,1.23432 14.5024,3.0486 18.8597,0.578774 2.73205,-1.54733 3.68171,-4.49317 3.5128,-7.51933 -0.133472,-2.41667 -0.878791,-7.25829 -1.22724,-9.91947 0.774848,0.700434 4.06205,5.633 4.82862,6.81063 3.149,4.83689 3.8707,8.29418 2.44975,13.8221 -0.476012,1.84735 -1.06423,2.25367 -2.59739,3.28365 -3.16908,2.12965 -3.80219,3.04033 -7.60556,4.15536 -2.01626,0.590585 -3.39941,0.400417 -5.4133,0.468925 -1.65128,0.0566962 -0.190168,0.30238 -2.64346,-0.0366163 -4.76012,-0.659093 -7.79572,-1.25322 -12.5251,-2.1769 -1.60403,-0.31301 -3.86833,-0.346083 -5.52552,-0.351989 -2.7037,-0.00826819 -12.192,2.23241 -14.5284,3.11475 -5.95546,2.24659 -9.3218,5.64836 -12.3385,11.0605 -3.83054,6.87559 -5.71568,15.8135 -5.72277,23.6825 -0.00236234,3.63092 -0.0224422,5.05895 0.237415,8.58475l0.510266 5.38377c0.125204,1.02289 -0.225604,0.978009 -0.904777,1.8001 -1.15046,1.3926 -4.60066,4.97981 -5.54796,6.21414 -0.387424,0.506722 -5.18534,5.90703 -5.56449,6.19642z"/>
    <path id="_402929896" class="fil5" d="M160.161 189.99c-0.271669,0.388605 -0.297655,0.398054 -0.800834,0.248046l-0.00472468 -0.647281c0.331909,0.177176 0.41341,0.0850443 0.805558,0.399236z"/>
    <path id="_402940312" class="fil5" d="M273.111 217.351c-0.350808,0.354351 -0.172451,0.296474 -0.692166,0.265763 0.048428,-0.35317 -0.00708702,-0.476012 0.265763,-0.815008 0.274032,0.63547 -0.196074,0.225604 0.426403,0.549244z"/>
    <g>
     <path id="_402942448" class="fil2" d="M184.756 237.245c2.53479,2.66 3.60021,6.67952 3.93684,10.236 0.246865,2.58676 -3.25058,8.04495 -4.70933,10.0612 -1.36543,1.88515 -3.08404,4.07622 -4.90422,5.53969l-0.59531 0.477193 -0.590585 -0.480736c-1.81782,-1.48237 -3.52816,-3.64155 -4.8995,-5.53615 -1.45993,-2.01626 -4.95737,-7.47445 -4.71051,-10.0612 0.337815,-3.5565 1.40323,-7.57603 3.93684,-10.236l0 -41.0303 12.5358 0 0 41.0303z"/>
    </g>
    <g>
     <path id="_402951760" class="fil9" d="M178.489 237.544l5.54441 0 0 -0.00354351c2.29029,2.26194 3.81518,5.88695 3.94038,10.0092 0.243321,1.5119 -1.63356,5.50307 -4.57704,9.56866 -1.67844,2.31864 -3.38169,4.2156 -4.77075,5.39913l-0.138197 0.11103 -0.137016 -0.11103c-1.38788,-1.18353 -3.09112,-3.08049 -4.77075,-5.39913 -2.9423,-4.06559 -4.81918,-8.05676 -4.57585,-9.56866 0.124023,-4.12228 1.64891,-7.7473 3.94038,-10.0092l0 0.00354351 5.54441 0z"/>
     <rect id="_402934552" class="fil3" x="172.945" y="196.938" width="11.0884" height="39.945"/>
    </g>
    <ellipse id="_402958384" class="fil4" cx="178.489" cy="247.87" rx="2.70996" ry="2.71023"/>
    <path id="_402960256" class="fil10" d="M178.489 244.539c0.920132,0 1.75286,0.37325 2.35525,0.975647 0.602397,0.602397 0.975647,1.4363 0.975647,2.35525 0,0.918951 -0.37325,1.75168 -0.975647,2.35525l-0.00118117 0 0 0.00118117c-0.603578,0.602397 -1.4363,0.975647 -2.35407,0.975647 -0.917769,0 -1.75049,-0.37325 -2.35407,-0.975647l-0.00118117 -0.00118117 0 0c-0.603578,-0.603578 -0.975647,-1.4363 -0.975647,-2.35525 0,-0.918951 0.372069,-1.75286 0.975647,-2.35525 0.602397,-0.602397 1.43512,-0.975647 2.35525,-0.975647zm1.83554 1.49536c-0.470106,-0.470106 -1.11857,-0.760674 -1.83554,-0.760674 -0.71697,0 -1.36661,0.290568 -1.83554,0.760674 -0.470106,0.470106 -0.760674,1.11975 -0.760674,1.83554 0,0.718152 0.290568,1.3678 0.758311,1.83672l0.00236234 0.00118117c0.467743,0.468925 1.11739,0.759493 1.83554,0.759493 0.718152,0 1.36661,-0.290568 1.83554,-0.759493l0.00118117 -0.00118117c0.468925,-0.468925 0.759493,-1.11857 0.759493,-1.83672 0,-0.715789 -0.290568,-1.36543 -0.760674,-1.83554z"/>
    <rect id="_402943528" class="fil2" x="178.108" y="250.811" width="0.761666" height="12.167" rx="0.295293" ry="0.295293"/>
   </g>
   <g>
    <path id="_518535904" class="fil11" d="M776.275 121.878l148.977 0.119298 -0.101581 185.888 94.2456 -0.108668 0.0389786 -185.942 150.944 0.0248046c-1.94893,-79.8105 -71.9664,-70.1804 -160.681,-70.1804l-233.787 0.100399 0.362619 70.0989z"/>
    <path id="_518538952" class="fil11" d="M657.474 213.357l-0.0507903 -57.7002c1.47764,-57.5773 -12.8724,-102.905 93.6302,-104.343l0.134653 151.822c0,57.3907 12.8145,102.728 -93.0302,104.329l0 0.0129929 -0.600035 0 -171.957 0 -0.600035 0 0 -0.0129929c-75.8937,-1.1481 -90.7789,-24.7845 -93.127,-59.2262l0 -18.5834 0 -18.6129c1.85208,-36.2761 14.5166,-61.3453 93.2818,-62.4083l0.0578774 64.7234 172.261 0z"/>
    <path id="_518533096" class="fil11" d="M1288.76 149.345l-0.0330728 0 0.0330728 -98.0312c-74.9925,0.885878 -91.1828,23.4132 -94.1452,56.5958l0 169.381 0.0259857 30.2096 94.1192 -0.235053 0 -157.92z"/>
   </g>
   <path id="_518517448" class="fil12" d="M1319.78 180.384c1.61112,0.1819 3.19034,0.274032 4.71051,0.303561 1.51899,0.0614209 3.15963,0.0614209 4.95147,0.0614209 3.82935,0.0295293 7.44492,-0.455932 10.8774,-1.42804 3.46437,-0.972103 6.50234,-2.67417 9.20722,-5.0436 2.67299,-2.37061 4.80028,-5.6519 6.34997,-9.84506 1.5497,-4.16244 2.33872,-9.41865 2.36943,-15.7686l0 -95.891 -20.0527 0 0 97.3497c-0.0307104,3.25058 -0.546882,5.77238 -1.5497,7.53469 -1.03352,1.79302 -2.40014,3.00844 -4.13292,3.70651 -1.70089,0.668542 -3.64509,1.00281 -5.80309,0.972103 -1.09376,0 -2.24777,0 -3.46319,-0.0295293 -1.18471,0 -2.3399,-0.0614209 -3.46437,-0.152371l0 18.2302z"/>
   <path id="_5185174481" class="fil12" d="M1371.01 52.7723l0 97.1666c0,6.83661 1.12447,12.609 3.37224,17.3797 2.24895,4.77075 5.59048,8.41584 10.027,10.9376 4.4353,2.49227 9.93482,3.73722 16.4986,3.76793 6.56258,-0.0307104 12.0621,-1.27566 16.4974,-3.76793 4.43648,-2.5218 7.77919,-6.16689 10.027,-10.9376 2.24895,-4.77075 3.37224,-10.5431 3.37224,-17.3797l0 -97.1666 -18.959 0 0 98.4435c0,3.03797 -0.425221,5.43811 -1.27566,7.26065 -0.851624,1.82373 -2.03634,3.1301 -3.58603,3.95102 -1.5497,0.819732 -3.40295,1.21424 -5.52906,1.18471 -2.12729,0.0295293 -3.98054,-0.364982 -5.53024,-1.18471 -1.5497,-0.820913 -2.73441,-2.12729 -3.58485,-3.95102 -0.851624,-1.82255 -1.27685,-4.22268 -1.27685,-7.26065l0 -98.4435 -20.0527 0z"/>
   <path id="_51851744812" class="fil12" d="M1506.82 180.384c-0.972103,-2.3399 -1.58041,-4.74004 -1.85326,-7.20042 -0.243321,-2.46156 -0.364982,-5.22668 -0.334271,-8.29536l0 -19.6889c0.0307104,-4.4353 -0.395692,-8.44655 -1.21542,-11.9712 -0.850443,-3.55414 -2.24895,-6.59329 -4.19316,-9.11509 -1.94421,-2.5218 -4.58767,-4.49672 -7.89967,-5.89404l0 -0.364982c4.46601,-2.09658 7.7473,-5.25621 9.9053,-9.5096 2.15682,-4.25339 3.21987,-9.63126 3.21987,-16.195l0 -10.0258c0.0307104,-6.56258 -1.00163,-12.0326 -3.09821,-16.3769 -2.06705,-4.34553 -5.28692,-7.59611 -9.66197,-9.75292 -4.40577,-2.158 -10.0577,-3.22105 -16.9545,-3.22105l-30.2616 0 0 127.611 20.0527 0 0 -51.9561 6.92756 0c3.03797,-0.0307104 5.53024,0.516171 7.44374,1.58041 1.94421,1.06305 3.37224,2.79465 4.31482,5.16526 0.911864,2.40014 1.36661,5.55977 1.36661,9.47889l0 20.0539c0,2.58204 0.0614209,4.70933 0.121661,6.38068 0.0909501,1.67018 0.212611,3.03797 0.395692,4.13173 0.15119,1.06305 0.334271,2.00563 0.576411,2.79583 0.213792,0.789022 0.455932,1.57922 0.729963,2.36943l20.4177 0zm-32.6322 -109.381c3.52461,-0.0307104 6.13736,1.03352 7.77801,3.1301 1.64065,2.12611 2.46156,5.46882 2.43085,9.99506l0 12.5795c0,3.37224 -0.486642,6.04641 -1.45875,8.02133 -0.972103,1.97492 -2.33872,3.40295 -4.13173,4.25339 -1.79302,0.820913 -3.94983,1.24613 -6.44092,1.21542l-7.83943 0 0 -39.1948 9.66197 0z"/>
   <path id="_518517448123" class="fil12" d="M1516.85 52.7723l0 97.1666c0,6.83661 1.12447,12.609 3.37224,17.3797 2.24895,4.77075 5.59048,8.41584 10.027,10.9376 4.4353,2.49227 9.93482,3.73722 16.4986,3.76793 6.56258,-0.0307104 12.0621,-1.27566 16.4974,-3.76793 4.43648,-2.5218 7.77919,-6.16689 10.027,-10.9376 2.24895,-4.77075 3.37224,-10.5431 3.37224,-17.3797l0 -97.1666 -18.959 0 0 98.4435c0,3.03797 -0.425221,5.43811 -1.27566,7.26065 -0.851624,1.82373 -2.03634,3.1301 -3.58603,3.95102 -1.5497,0.819732 -3.40295,1.21424 -5.52906,1.18471 -2.12729,0.0295293 -3.98054,-0.364982 -5.53024,-1.18471 -1.5497,-0.820913 -2.73441,-2.12729 -3.58485,-3.95102 -0.851624,-1.82255 -1.27685,-4.22268 -1.27685,-7.26065l0 -98.4435 -20.0527 0z"/>
   <path id="_5185174481234" class="fil12" d="M1587.76 83.3989c0,3.61556 0.334271,7.04923 1.09376,10.2998 0.728782,3.25176 1.94421,6.4421 3.64627,9.60173 1.70089,3.12892 3.94983,6.31926 6.8059,9.60055 2.82536,3.28247 6.34997,6.74566 10.5124,10.4226 4.34434,3.79746 7.77801,7.20042 10.2691,10.2089 2.52298,3.03797 4.28411,5.95428 5.34834,8.75011 1.03234,2.76512 1.5497,5.68143 1.51899,8.75011 0,3.03915 -0.425221,5.43929 -1.27566,7.26184 -0.851624,1.82373 -2.03634,3.1301 -3.58603,3.94983 -1.5497,0.820913 -3.40295,1.21542 -5.52906,1.18471 -2.12729,0.0307104 -3.98054,-0.3638 -5.53024,-1.18471 -1.5497,-0.819732 -2.73441,-2.12611 -3.58485,-3.94983 -0.851624,-1.82255 -1.27685,-4.22268 -1.27685,-7.26184l0 -9.11509 -18.959 0 0 7.83943c0,6.83661 1.12447,12.609 3.37224,17.3797 2.24895,4.76957 5.59048,8.41584 10.027,10.9376 4.4353,2.49109 9.93482,3.73722 16.4986,3.76793 6.56258,-0.0307104 12.0621,-1.27685 16.4974,-3.76793 4.43648,-2.5218 7.77919,-6.16807 10.027,-10.9376 2.24895,-4.77075 3.37224,-10.5431 3.37224,-17.3797 0.0307104,-3.61556 -0.334271,-7.04923 -1.09376,-10.2998 -0.728782,-3.28129 -1.94421,-6.47163 -3.64627,-9.60173 -1.70089,-3.12892 -3.94983,-6.31926 -6.8059,-9.60055 -2.82536,-3.28247 -6.31926,-6.74566 -10.5124,-10.4226 -4.34434,-3.79746 -7.77801,-7.20042 -10.2691,-10.2384 -2.5218,-3.00844 -4.28411,-5.92475 -5.34834,-8.72058 -1.03234,-2.76512 -1.54851,-5.71214 -1.51899,-8.75011 0.0307104,-4.52743 0.881153,-7.74848 2.61275,-9.7234 1.73278,-1.94421 4.19316,-2.91631 7.41421,-2.85607 3.22105,-0.0602397 5.68143,0.911864 7.41303,2.85607 1.73278,1.97492 2.58322,5.19597 2.61393,9.7234l0 5.28692 18.959 0 0 -4.01125c0,-6.83661 -1.12447,-12.6397 -3.312,-17.4093 -2.21824,-4.77075 -5.52906,-8.38631 -9.9053,-10.9081 -4.37506,-2.49109 -9.81316,-3.73722 -16.3155,-3.76793 -6.50234,0.0307104 -11.9405,1.27685 -16.3167,3.76793 -4.37506,2.5218 -7.68706,6.13736 -9.90411,10.9081 -2.18753,4.76957 -3.312,10.5727 -3.312,17.4093z"/>
   <path id="_51851744812345" class="fil12" d="M1702.98 52.7723l-29.3509 0 -20.4177 127.611 18.4121 0 3.46437 -23.1521 24.6097 0 3.46437 23.1521 20.2358 0 -20.4177 -127.611zm-15.8608 22.6052l0.364982 0 9.47889 64.5356 -19.3239 0 9.48007 -64.5356z"/>
   <polygon id="_518517448123456" class="fil12" points="1775.53,180.384 1796.14,180.384 1796.14,52.7723 1778.27,52.7723 1778.27,129.156 1777.9,129.156 1757.67,52.7723 1732.51,52.7723 1732.51,180.384 1750.56,180.384 1750.56,87.957 1750.92,87.957 "/>
   <polygon id="_5185174481234567" class="fil12" points="1832.96,71.0025 1853.92,71.0025 1853.92,180.384 1873.98,180.384 1873.98,71.0025 1894.94,71.0025 1894.94,52.7723 1832.96,52.7723 "/>
   <polygon id="_51851744812345678" class="fil12" points="1923.75,71.0025 1958.38,71.0025 1958.38,52.7723 1903.69,52.7723 1903.69,180.384 1958.38,180.384 1958.38,162.153 1923.75,162.153 1923.75,124.781 1951.27,124.781 1951.27,106.551 1923.75,106.551 "/>
   <polygon id="_518517448123456789" class="fil12" points="2016.54,180.384 2037.14,180.384 2009.25,109.65 2037.14,52.7723 2017.08,52.7723 1991.2,108.01 1990.83,108.01 1990.83,52.7723 1970.78,52.7723 1970.78,180.384 1990.83,180.384 1990.83,141.189 1997.03,129.521 "/>
   <polygon id="_51851744812345678910" class="fil12" points="2089.09,180.384 2109.69,180.384 2109.69,52.7723 2091.83,52.7723 2091.83,129.156 2091.46,129.156 2071.23,52.7723 2046.07,52.7723 2046.07,180.384 2064.12,180.384 2064.12,87.957 2064.48,87.957 "/>
   <path id="_5185174481234567891011" class="fil12" d="M2142.51 82.1232c0.0307104,-4.52743 0.972103,-7.74848 2.79465,-9.7234 1.85444,-1.94421 4.37624,-2.91631 7.59611,-2.85607 3.22105,-0.0602397 5.74285,0.911864 7.59611,2.85607 1.82373,1.97492 2.76512,5.19597 2.79583,9.7234l0 68.9095c-0.0307104,4.52743 -0.972103,7.74848 -2.79583,9.7234 -1.85326,1.94421 -4.37506,2.91631 -7.59611,2.85607 -3.21987,0.0602397 -5.74167,-0.911864 -7.59611,-2.85607 -1.82255,-1.97492 -2.76394,-5.19597 -2.79465,-9.7234l0 -68.9095zm-20.0527 67.6338c0,6.83661 1.18471,12.609 3.52343,17.3797 2.3399,4.76957 5.74285,8.41584 10.2703,10.9376 4.52743,2.49109 10.0872,3.73722 16.6498,3.76793 6.56376,-0.0307104 12.1235,-1.27685 16.651,-3.76793 4.52625,-2.5218 7.9292,-6.16807 10.2691,-10.9376 2.3399,-4.77075 3.52461,-10.5431 3.52461,-17.3797l0 -66.3582c0,-6.83661 -1.18471,-12.6397 -3.52461,-17.4093 -2.3399,-4.77075 -5.74285,-8.38631 -10.2691,-10.9081 -4.52743,-2.49109 -10.0872,-3.73722 -16.651,-3.76793 -6.56258,0.0307104 -12.1224,1.27685 -16.6498,3.76793 -4.52743,2.5218 -7.93038,6.13736 -10.2703,10.9081 -2.33872,4.76957 -3.52343,10.5727 -3.52343,17.4093l0 66.3582z"/>
   <polygon id="_518517448123456789101112" class="fil12" points="2196.29,180.384 2249.34,180.384 2249.34,162.153 2216.34,162.153 2216.34,52.7723 2196.29,52.7723 "/>
   <path id="_51851744812345678910111213" class="fil12" d="M2276.5 82.1232c0.0307104,-4.52743 0.972103,-7.74848 2.79465,-9.7234 1.85444,-1.94421 4.37624,-2.91631 7.59611,-2.85607 3.22105,-0.0602397 5.74285,0.911864 7.59611,2.85607 1.82373,1.97492 2.76512,5.19597 2.79583,9.7234l0 68.9095c-0.0307104,4.52743 -0.972103,7.74848 -2.79583,9.7234 -1.85326,1.94421 -4.37506,2.91631 -7.59611,2.85607 -3.21987,0.0602397 -5.74167,-0.911864 -7.59611,-2.85607 -1.82255,-1.97492 -2.76394,-5.19597 -2.79465,-9.7234l0 -68.9095zm-20.0527 67.6338c0,6.83661 1.18471,12.609 3.52343,17.3797 2.3399,4.76957 5.74285,8.41584 10.2703,10.9376 4.52743,2.49109 10.0872,3.73722 16.6498,3.76793 6.56376,-0.0307104 12.1235,-1.27685 16.651,-3.76793 4.52625,-2.5218 7.9292,-6.16807 10.2691,-10.9376 2.3399,-4.77075 3.52461,-10.5431 3.52461,-17.3797l0 -66.3582c0,-6.83661 -1.18471,-12.6397 -3.52461,-17.4093 -2.3399,-4.77075 -5.74285,-8.38631 -10.2691,-10.9081 -4.52743,-2.49109 -10.0872,-3.73722 -16.651,-3.76793 -6.56258,0.0307104 -12.1224,1.27685 -16.6498,3.76793 -4.52743,2.5218 -7.93038,6.13736 -10.2703,10.9081 -2.33872,4.76957 -3.52343,10.5727 -3.52343,17.4093l0 66.3582z"/>
   <path id="_5185174481234567891011121314" class="fil12" d="M2360.36 127.516l9.11509 0 0 23.5171c0,3.00844 -0.425221,5.43929 -1.27685,7.26184 -0.850443,1.82373 -2.03516,3.1301 -3.58485,3.94983 -1.5497,0.820913 -3.40295,1.21542 -5.53024,1.18471 -2.12611,0.0307104 -3.97936,-0.3638 -5.52906,-1.18471 -1.5497,-0.819732 -2.73441,-2.12611 -3.58603,-3.94983 -0.850443,-1.82255 -1.27566,-4.25339 -1.27566,-7.26184l0 -68.9095c0.0307104,-4.52743 0.972103,-7.74848 2.79465,-9.7234 1.85444,-1.94421 4.37624,-2.91631 7.59611,-2.85607 3.22105,-0.0602397 5.74285,0.911864 7.59611,2.85607 1.82373,1.97492 2.76512,5.19597 2.79583,9.7234l0 13.672 18.959 0 0 -12.3964c0,-6.83661 -1.12447,-12.6397 -3.37224,-17.4093 -2.24895,-4.77075 -5.59048,-8.38631 -10.027,-10.9081 -4.43648,-2.49109 -9.93482,-3.73722 -16.4986,-3.76793 -6.56258,0.0307104 -12.0621,1.27685 -16.4974,3.76793 -4.43648,2.5218 -7.77919,6.13736 -10.027,10.9081 -2.24895,4.76957 -3.37224,10.5727 -3.37224,17.4093l0 66.3582c0,6.83661 1.12329,12.609 3.37224,17.3797 2.24777,4.76957 5.59048,8.41584 10.027,10.9376 4.4353,2.49109 9.93482,3.73722 16.4974,3.76793 6.56376,-0.0307104 12.0621,-1.27685 16.4986,-3.76793 4.43648,-2.5218 7.77801,-6.16807 10.027,-10.9376 2.24777,-4.77075 3.37224,-10.5431 3.37224,-17.3797l0 -40.4716 -28.0741 0 0 18.2302z"/>
   <polygon id="_518517448123456789101112131415" class="fil12" points="2401.38,180.384 2421.43,180.384 2421.43,52.7723 2401.38,52.7723 "/>
   <polygon id="_51851744812345678910111213141516" class="fil12" points="2464.27,180.384 2484.33,180.384 2484.33,52.7723 2464.27,52.7723 "/>
   <polygon id="_5185174481234567891011121314151617" class="fil12" points="2541.75,180.384 2562.35,180.384 2562.35,52.7723 2544.49,52.7723 2544.49,129.156 2544.12,129.156 2523.89,52.7723 2498.73,52.7723 2498.73,180.384 2516.78,180.384 2516.78,87.957 2517.14,87.957 "/>
   <polygon id="_518517448123456789101112131415161718" class="fil12" points="2596.81,71.0025 2629.8,71.0025 2629.8,52.7723 2576.75,52.7723 2576.75,180.384 2596.81,180.384 2596.81,127.699 2622.69,127.699 2622.69,109.469 2596.81,109.469 "/>
   <path id="_51851744812345678910111213141516171819" class="fil12" d="M2657.88 82.1232c0.0307104,-4.52743 0.972103,-7.74848 2.79465,-9.7234 1.85444,-1.94421 4.37624,-2.91631 7.59611,-2.85607 3.22105,-0.0602397 5.74285,0.911864 7.59611,2.85607 1.82373,1.97492 2.76512,5.19597 2.79583,9.7234l0 68.9095c-0.0307104,4.52743 -0.972103,7.74848 -2.79583,9.7234 -1.85326,1.94421 -4.37506,2.91631 -7.59611,2.85607 -3.21987,0.0602397 -5.74167,-0.911864 -7.59611,-2.85607 -1.82255,-1.97492 -2.76394,-5.19597 -2.79465,-9.7234l0 -68.9095zm-20.0527 67.6338c0,6.83661 1.18471,12.609 3.52343,17.3797 2.3399,4.76957 5.74285,8.41584 10.2703,10.9376 4.52743,2.49109 10.0872,3.73722 16.6498,3.76793 6.56376,-0.0307104 12.1235,-1.27685 16.651,-3.76793 4.52625,-2.5218 7.9292,-6.16807 10.2691,-10.9376 2.3399,-4.77075 3.52461,-10.5431 3.52461,-17.3797l0 -66.3582c0,-6.83661 -1.18471,-12.6397 -3.52461,-17.4093 -2.3399,-4.77075 -5.74285,-8.38631 -10.2691,-10.9081 -4.52743,-2.49109 -10.0872,-3.73722 -16.651,-3.76793 -6.56258,0.0307104 -12.1224,1.27685 -16.6498,3.76793 -4.52743,2.5218 -7.93038,6.13736 -10.2703,10.9081 -2.33872,4.76957 -3.52343,10.5727 -3.52343,17.4093l0 66.3582z"/>
   <path id="_5185174481234567891011121314151617181920" class="fil12" d="M2774 180.384c-0.972103,-2.3399 -1.58041,-4.74004 -1.85326,-7.20042 -0.243321,-2.46156 -0.364982,-5.22668 -0.334271,-8.29536l0 -19.6889c0.0307104,-4.4353 -0.395692,-8.44655 -1.21542,-11.9712 -0.850443,-3.55414 -2.24895,-6.59329 -4.19316,-9.11509 -1.94421,-2.5218 -4.58767,-4.49672 -7.89967,-5.89404l0 -0.364982c4.46601,-2.09658 7.7473,-5.25621 9.9053,-9.5096 2.15682,-4.25339 3.21987,-9.63126 3.21987,-16.195l0 -10.0258c0.0307104,-6.56258 -1.00163,-12.0326 -3.09821,-16.3769 -2.06705,-4.34553 -5.28692,-7.59611 -9.66197,-9.75292 -4.40577,-2.158 -10.0577,-3.22105 -16.9545,-3.22105l-30.2616 0 0 127.611 20.0527 0 0 -51.9561 6.92756 0c3.03797,-0.0307104 5.53024,0.516171 7.44374,1.58041 1.94421,1.06305 3.37224,2.79465 4.31482,5.16526 0.911864,2.40014 1.36661,5.55977 1.36661,9.47889l0 20.0539c0,2.58204 0.0614209,4.70933 0.121661,6.38068 0.0909501,1.67018 0.212611,3.03797 0.395692,4.13173 0.15119,1.06305 0.334271,2.00563 0.576411,2.79583 0.213792,0.789022 0.455932,1.57922 0.729963,2.36943l20.4177 0zm-32.6322 -109.381c3.52461,-0.0307104 6.13736,1.03352 7.77801,3.1301 1.64065,2.12611 2.46156,5.46882 2.43085,9.99506l0 12.5795c0,3.37224 -0.486642,6.04641 -1.45875,8.02133 -0.972103,1.97492 -2.33872,3.40295 -4.13173,4.25339 -1.79302,0.820913 -3.94983,1.24613 -6.44092,1.21542l-7.83943 0 0 -39.1948 9.66197 0z"/>
   <polygon id="_518517448123456789101112131415161718192021" class="fil12" points="2812.65,52.7723 2784.76,52.7723 2784.76,180.384 2802.26,180.384 2802.26,90.1446 2802.63,90.1446 2817.21,180.384 2836.17,180.384 2849.66,88.8677 2850.02,88.8677 2850.02,180.384 2868.98,180.384 2868.98,52.7723 2841.09,52.7723 2827.6,143.376 2827.24,143.376 "/>
   <path id="_51851744812345678910111213141516171819202122" class="fil12" d="M2928.05 52.7723l-29.3509 0 -20.4177 127.611 18.4121 0 3.46437 -23.1521 24.6097 0 3.46437 23.1521 20.2358 0 -20.4177 -127.611zm-15.8608 22.6052l0.364982 0 9.47889 64.5356 -19.3239 0 9.48007 -64.5356z"/>
   <path id="_5185174481234567891011121314151617181920212223" class="fil12" d="M2955.21 83.3989c0,3.61556 0.334271,7.04923 1.09376,10.2998 0.728782,3.25176 1.94421,6.4421 3.64627,9.60173 1.70089,3.12892 3.94983,6.31926 6.8059,9.60055 2.82536,3.28247 6.34997,6.74566 10.5124,10.4226 4.34434,3.79746 7.77801,7.20042 10.2691,10.2089 2.52298,3.03797 4.28411,5.95428 5.34834,8.75011 1.03234,2.76512 1.5497,5.68143 1.51899,8.75011 0,3.03915 -0.425221,5.43929 -1.27566,7.26184 -0.851624,1.82373 -2.03634,3.1301 -3.58603,3.94983 -1.5497,0.820913 -3.40295,1.21542 -5.52906,1.18471 -2.12729,0.0307104 -3.98054,-0.3638 -5.53024,-1.18471 -1.5497,-0.819732 -2.73441,-2.12611 -3.58485,-3.94983 -0.851624,-1.82255 -1.27685,-4.22268 -1.27685,-7.26184l0 -9.11509 -18.959 0 0 7.83943c0,6.83661 1.12447,12.609 3.37224,17.3797 2.24895,4.76957 5.59048,8.41584 10.027,10.9376 4.4353,2.49109 9.93482,3.73722 16.4986,3.76793 6.56258,-0.0307104 12.0621,-1.27685 16.4974,-3.76793 4.43648,-2.5218 7.77919,-6.16807 10.027,-10.9376 2.24895,-4.77075 3.37224,-10.5431 3.37224,-17.3797 0.0307104,-3.61556 -0.334271,-7.04923 -1.09376,-10.2998 -0.728782,-3.28129 -1.94421,-6.47163 -3.64627,-9.60173 -1.70089,-3.12892 -3.94983,-6.31926 -6.8059,-9.60055 -2.82536,-3.28247 -6.31926,-6.74566 -10.5124,-10.4226 -4.34434,-3.79746 -7.77801,-7.20042 -10.2691,-10.2384 -2.5218,-3.00844 -4.28411,-5.92475 -5.34834,-8.72058 -1.03234,-2.76512 -1.54851,-5.71214 -1.51899,-8.75011 0.0307104,-4.52743 0.881153,-7.74848 2.61275,-9.7234 1.73278,-1.94421 4.19316,-2.91631 7.41421,-2.85607 3.22105,-0.0602397 5.68143,0.911864 7.41303,2.85607 1.73278,1.97492 2.58322,5.19597 2.61393,9.7234l0 5.28692 18.959 0 0 -4.01125c0,-6.83661 -1.12447,-12.6397 -3.312,-17.4093 -2.21824,-4.77075 -5.52906,-8.38631 -9.9053,-10.9081 -4.37506,-2.49109 -9.81316,-3.73722 -16.3155,-3.76793 -6.50234,0.0307104 -11.9405,1.27685 -16.3167,3.76793 -4.37506,2.5218 -7.68706,6.13736 -9.90411,10.9081 -2.18753,4.76957 -3.312,10.5727 -3.312,17.4093z"/>
   <polygon id="_518517448123456789101112131415161718192021222324" class="fil12" points="3025.95,180.384 3046,180.384 3046,52.7723 3025.95,52.7723 "/>
   <path id="_518522920" class="fil12" d="M1356.31 204.63l-23.6258 0 0 102.089 16.0427 0 0 -38.3561 7.58311 0c8.02133,-0.0236234 14.0004,-2.18753 17.9869,-6.48935 3.96283,-4.303 5.93066,-10.549 5.93066,-18.7405l0 -13.2716c0,-8.19142 -1.96783,-14.4386 -5.93066,-18.7405 -3.98645,-4.303 -9.96554,-6.46573 -17.9869,-6.49053zm0 14.5839c1.70207,-0.0236234 3.13601,0.268126 4.303,0.875247 1.19062,0.583498 2.06587,1.60403 2.67299,3.01435 0.608303,1.41032 0.900052,3.32972 0.900052,5.73576l0 15.3139c0,2.40604 -0.291749,4.32663 -0.900052,5.73576 -0.607122,1.41032 -1.48237,2.40723 -2.67299,3.01435 -1.167,0.608303 -2.60094,0.900052 -4.303,0.875247l-7.58311 0 0 -34.5646 7.58311 0z"/>
   <path id="_5185229201" class="fil12" d="M1402.4 228.11c0.0248046,-3.62147 0.778391,-6.1976 2.23714,-7.77801 1.48237,-1.5556 3.49981,-2.33399 6.07594,-2.28438 2.57731,-0.0496092 4.59475,0.728782 6.07712,2.28438 1.45875,1.58041 2.21233,4.15654 2.23596,7.77801l0 55.1276c-0.0236234,3.62147 -0.77721,6.19878 -2.23596,7.77801 -1.48237,1.5556 -3.49981,2.33399 -6.07712,2.28556 -2.57613,0.048428 -4.59357,-0.729963 -6.07594,-2.28556 -1.45875,-1.57922 -2.21233,-4.15654 -2.23714,-7.77801l0 -55.1276zm-16.0415 54.1071c0,5.46882 0.947299,10.0872 2.81945,13.9036 1.87097,3.81636 4.59357,6.73267 8.21504,8.75011 3.62147,1.99263 8.06976,2.98954 13.3201,3.01435 5.2503,-0.0248046 9.69859,-1.02171 13.3201,-3.01435 3.62147,-2.01744 6.34407,-4.93375 8.21622,-8.75011 1.87097,-3.81636 2.81945,-8.43474 2.81945,-13.9036l0 -53.0865c0,-5.46882 -0.94848,-10.1108 -2.81945,-13.9272 -1.87216,-3.81636 -4.59475,-6.70905 -8.21622,-8.72649 -3.62147,-1.99263 -8.06976,-2.98954 -13.3201,-3.01317 -5.2503,0.0236234 -9.69859,1.02053 -13.3201,3.01317 -3.62147,2.01744 -6.34407,4.91013 -8.21504,8.72649 -1.87216,3.81636 -2.81945,8.45836 -2.81945,13.9272l0 53.0865z"/>
   <polygon id="_51852292012" class="fil12" points="1445.42,306.718 1487.86,306.718 1487.86,292.134 1461.46,292.134 1461.46,204.63 1445.42,204.63 "/>
   <polygon id="_518522920123" class="fil12" points="1494.86,306.718 1510.9,306.718 1510.9,204.63 1494.86,204.63 "/>
   <polygon id="_5185229201234" class="fil12" points="1517.9,219.213 1534.68,219.213 1534.68,306.718 1550.72,306.718 1550.72,219.213 1567.49,219.213 1567.49,204.63 1517.9,204.63 "/>
   <polygon id="_51852292012345" class="fil12" points="1590.53,219.213 1618.24,219.213 1618.24,204.63 1574.49,204.63 1574.49,306.718 1618.24,306.718 1618.24,292.134 1590.53,292.134 1590.53,262.236 1612.56,262.236 1612.56,247.652 1590.53,247.652 "/>
   <polygon id="_518522920123456" class="fil12" points="1664.77,306.718 1681.24,306.718 1658.93,250.132 1681.24,204.63 1665.2,204.63 1644.49,248.819 1644.2,248.819 1644.2,204.63 1628.16,204.63 1628.16,306.718 1644.2,306.718 1644.2,275.363 1649.16,266.029 "/>
   <polygon id="_5185229201234567" class="fil12" points="1722.81,306.718 1739.29,306.718 1739.29,204.63 1725,204.63 1725,265.737 1724.71,265.737 1708.52,204.63 1688.39,204.63 1688.39,306.718 1702.83,306.718 1702.83,232.777 1703.12,232.777 "/>
   <polygon id="_51852292012345678" class="fil12" points="1750.81,306.718 1766.85,306.718 1766.85,204.63 1750.81,204.63 "/>
   <polygon id="_518522920123456789" class="fil12" points="1815.13,306.718 1831.61,306.718 1809.29,250.132 1831.61,204.63 1815.56,204.63 1794.85,248.819 1794.56,248.819 1794.56,204.63 1778.52,204.63 1778.52,306.718 1794.56,306.718 1794.56,275.363 1799.52,266.029 "/>
   <polygon id="_51852292012345678910" class="fil12" points="1895.78,306.718 1912.26,306.718 1912.26,204.63 1897.96,204.63 1897.96,265.737 1897.67,265.737 1881.48,204.63 1861.36,204.63 1861.36,306.718 1875.8,306.718 1875.8,232.777 1876.09,232.777 "/>
   <polygon id="_5185229201234567891011" class="fil12" points="1939.82,219.213 1967.53,219.213 1967.53,204.63 1923.78,204.63 1923.78,306.718 1967.53,306.718 1967.53,292.134 1939.82,292.134 1939.82,262.236 1961.84,262.236 1961.84,247.652 1939.82,247.652 "/>
   <path id="_518522920123456789101112" class="fil12" d="M2001.51 264.424l7.29137 0 0 18.8137c0,2.40604 -0.340177,4.35143 -1.02053,5.809 -0.680354,1.45875 -1.62883,2.50408 -2.86788,3.16081 -1.24023,0.65555 -2.7226,0.972103 -4.42466,0.947299 -1.70089,0.0248046 -3.18444,-0.291749 -4.42348,-0.947299 -1.24023,-0.656731 -2.18753,-1.70207 -2.86788,-3.16081 -0.680354,-1.45756 -1.02171,-3.40295 -1.02171,-5.809l0 -55.1276c0.0248046,-3.62147 0.778391,-6.1976 2.23714,-7.77801 1.48237,-1.5556 3.49981,-2.33399 6.07594,-2.28438 2.57731,-0.0496092 4.59475,0.728782 6.07712,2.28438 1.45875,1.58041 2.21233,4.15654 2.23596,7.77801l0 10.9376 15.1674 0 0 -9.91711c0,-5.46882 -0.898871,-10.1108 -2.69779,-13.9272 -1.79892,-3.81636 -4.47309,-6.70905 -8.02133,-8.72649 -3.54824,-1.99263 -7.9481,-2.98954 -13.1984,-3.01317 -5.2503,0.0236234 -9.65016,1.02053 -13.1984,3.01317 -3.54942,2.01744 -6.22241,4.91013 -8.02133,8.72649 -1.79892,3.81636 -2.69779,8.45836 -2.69779,13.9272l0 53.0865c0,5.46882 0.898871,10.0872 2.69779,13.9036 1.79892,3.81636 4.47191,6.73267 8.02133,8.75011 3.54824,1.99263 7.9481,2.98954 13.1984,3.01435 5.2503,-0.0248046 9.65016,-1.02171 13.1984,-3.01435 3.54824,-2.01744 6.22241,-4.93375 8.02133,-8.75011 1.79892,-3.81636 2.69779,-8.43474 2.69779,-13.9036l0 -32.3771 -22.4588 0 0 14.5839z"/>
   <polygon id="_51852292012345678910111213" class="fil12" points="2050.37,219.213 2078.08,219.213 2078.08,204.63 2034.32,204.63 2034.32,306.718 2078.08,306.718 2078.08,292.134 2050.37,292.134 2050.37,262.236 2072.39,262.236 2072.39,247.652 2050.37,247.652 "/>
   <path id="_5185229201234567891011121314" class="fil12" d="M2137.87 306.718c-0.778391,-1.87216 -1.26385,-3.79156 -1.48237,-5.76057 -0.194893,-1.96901 -0.291749,-4.18134 -0.268126,-6.63582l0 -15.7509c0.0248046,-3.54824 -0.315373,-6.75748 -0.972103,-9.57693 -0.680354,-2.84426 -1.79892,-5.27393 -3.35452,-7.29137 -1.5556,-2.01744 -3.6699,-3.59785 -6.31926,-4.71641l0 -0.291749c3.57304,-1.67608 6.1976,-4.20497 7.92329,-7.60792 1.72687,-3.40295 2.57731,-7.70477 2.57731,-12.9551l0 -8.02133c0.0236234,-5.2503 -0.802015,-9.62536 -2.47928,-13.1015 -1.65364,-3.475 -4.22977,-6.07594 -7.72958,-7.80163 -3.52461,-1.72569 -8.04613,-2.57731 -13.5634,-2.57731l-24.2093 0 0 102.089 16.0427 0 0 -41.5642 5.54205 0c2.42967,-0.0248046 4.42348,0.41341 5.95428,1.26385 1.5556,0.850443 2.69779,2.23596 3.45138,4.13173 0.729963,1.92058 1.09376,4.44829 1.09376,7.5843l0 16.0415c0,2.06705 0.0496092,3.76793 0.0980371,5.10502 0.0732326,1.33708 0.170089,2.43085 0.315373,3.3061 0.121661,0.850443 0.268126,1.60403 0.461838,2.23596 0.170089,0.631926 0.364982,1.26385 0.583498,1.89578l16.3344 0zm-26.105 -87.5047c2.81945,-0.0236234 4.90894,0.826819 6.22241,2.50408 1.31228,1.70089 1.96901,4.37506 1.94421,7.99652l0 10.0636c0,2.69779 -0.388605,4.83689 -1.167,6.4173 -0.77721,1.57922 -1.87097,2.72142 -3.30491,3.40295 -1.43512,0.65555 -3.16081,0.995727 -5.15345,0.972103l-6.27083 0 0 -31.3565 7.72958 0z"/>
   <polygon id="_518522920123456789101112131415" class="fil12" points="2146.62,306.718 2162.66,306.718 2162.66,204.63 2146.62,204.63 "/>
   <path id="_51852292012345678910111213141516" class="fil12" d="M2192.56 306.718c1.28748,0.145284 2.55133,0.218517 3.76675,0.243321 1.21542,0.048428 2.52889,0.048428 3.96283,0.048428 3.06277,0.0248046 5.95428,-0.364982 8.70168,-1.14219 2.77103,-0.778391 5.20187,-2.1391 7.3646,-4.03488 2.1391,-1.89578 3.83999,-4.52152 5.08021,-7.87604 1.23905,-3.32972 1.87216,-7.53469 1.89578,-12.6149l0 -76.7123 -16.0427 0 0 77.8793c-0.0236234,2.60094 -0.437033,4.61838 -1.23905,6.02751 -0.826819,1.43394 -1.92058,2.40723 -3.3061,2.96592 -1.36071,0.53507 -2.91631,0.802015 -4.642,0.77721 -0.875247,0 -1.79892,0 -2.77103,-0.0236234 -0.94848,0 -1.87216,-0.048428 -2.77103,-0.121661l0 14.5839z"/>
   <polygon id="_5185229201234567891011121314151617" class="fil12" points="2250.31,219.213 2278.02,219.213 2278.02,204.63 2234.27,204.63 2234.27,306.718 2278.02,306.718 2278.02,292.134 2250.31,292.134 2250.31,262.236 2272.33,262.236 2272.33,247.652 2250.31,247.652 "/>
   <polygon id="_518522920123456789101112131415161718" class="fil12" points="2310.11,204.63 2287.79,204.63 2287.79,306.718 2301.79,306.718 2301.79,234.527 2302.09,234.527 2313.75,306.718 2328.92,306.718 2339.71,233.507 2340,233.507 2340,306.718 2355.17,306.718 2355.17,204.63 2332.86,204.63 2322.07,277.112 2321.77,277.112 "/>
   <path id="_51852292012345678910111213141516171819" class="fil12" d="M2391.05 204.63l-24.2093 0 0 102.089 25.2298 0c8.04613,-0.0248046 14.0985,-2.09067 18.2066,-6.19878 4.08331,-4.10693 6.14917,-10.1108 6.14917,-18.0105l0 -8.31308c0.048428,-5.42039 -0.875247,-9.96554 -2.74622,-13.6602 -1.87216,-3.67108 -4.95855,-6.36887 -9.21313,-8.06976l0 -0.291749c3.54942,-1.65246 6.17398,-4.18134 7.85124,-7.53469 1.67726,-3.35452 2.5277,-7.65753 2.50408,-12.883l0 -3.64627c0.0236234,-5.2503 -0.802015,-9.62536 -2.47928,-13.1015 -1.65364,-3.475 -4.22977,-6.07594 -7.72958,-7.80163 -3.52461,-1.72569 -8.04613,-2.57731 -13.5634,-2.57731l0 0zm-1.02053 56.1493c2.43085,-0.0248046 4.39868,0.340177 5.93066,1.09376 1.5308,0.77721 2.64937,2.06587 3.35452,3.86479 0.728782,1.82255 1.06896,4.30182 1.06896,7.43783l0 8.89539c0,2.50408 -0.315373,4.49672 -0.947299,5.98027 -0.631926,1.48237 -1.58041,2.5277 -2.81945,3.15963 -1.21542,0.631926 -2.7474,0.947299 -4.54633,0.923675l-9.18714 0 0 -31.3554 7.14608 0zm0.583498 -41.5654c2.81945,-0.0236234 4.90894,0.826819 6.22241,2.50408 1.31228,1.70089 1.96901,4.37506 1.94421,7.99652l0 5.68852c0,2.69779 -0.388605,4.83689 -1.167,6.41612 -0.77721,1.58041 -1.87097,2.7226 -3.30491,3.40295 -1.43512,0.656731 -3.16081,0.996908 -5.15345,0.973284l-6.27083 0 0 -26.9815 7.72958 0z"/>
   <polygon id="_5185229201234567891011121314151617181920" class="fil12" points="2442.09,219.213 2469.8,219.213 2469.8,204.63 2426.05,204.63 2426.05,306.718 2469.8,306.718 2469.8,292.134 2442.09,292.134 2442.09,262.236 2464.11,262.236 2464.11,247.652 2442.09,247.652 "/>
   <path id="_518522920123456789101112131415161718192021" class="fil12" d="M2529.6 306.718c-0.778391,-1.87216 -1.26385,-3.79156 -1.48237,-5.76057 -0.194893,-1.96901 -0.291749,-4.18134 -0.268126,-6.63582l0 -15.7509c0.0248046,-3.54824 -0.315373,-6.75748 -0.972103,-9.57693 -0.680354,-2.84426 -1.79892,-5.27393 -3.35452,-7.29137 -1.5556,-2.01744 -3.6699,-3.59785 -6.31926,-4.71641l0 -0.291749c3.57304,-1.67608 6.1976,-4.20497 7.92329,-7.60792 1.72687,-3.40295 2.57731,-7.70477 2.57731,-12.9551l0 -8.02133c0.0236234,-5.2503 -0.802015,-9.62536 -2.47928,-13.1015 -1.65364,-3.475 -4.22977,-6.07594 -7.72958,-7.80163 -3.52461,-1.72569 -8.04613,-2.57731 -13.5634,-2.57731l-24.2093 0 0 102.089 16.0427 0 0 -41.5642 5.54205 0c2.42967,-0.0248046 4.42348,0.41341 5.95428,1.26385 1.5556,0.850443 2.69779,2.23596 3.45138,4.13173 0.729963,1.92058 1.09376,4.44829 1.09376,7.5843l0 16.0415c0,2.06705 0.0496092,3.76793 0.0980371,5.10502 0.0732326,1.33708 0.170089,2.43085 0.315373,3.3061 0.121661,0.850443 0.268126,1.60403 0.461838,2.23596 0.170089,0.631926 0.364982,1.26385 0.583498,1.89578l16.3344 0zm-26.105 -87.5047c2.81945,-0.0236234 4.90894,0.826819 6.22241,2.50408 1.31228,1.70089 1.96901,4.37506 1.94421,7.99652l0 10.0636c0,2.69779 -0.388605,4.83689 -1.167,6.4173 -0.77721,1.57922 -1.87097,2.72142 -3.30491,3.40295 -1.43512,0.65555 -3.16081,0.995727 -5.15345,0.972103l-6.27083 0 0 -31.3565 7.72958 0z"/>
  </g>
 </g>
</svg>
